<svg class="animated" id="freepik_stories-in-progress" xmlns="http://www.w3.org/2000/svg" viewBox="0 0 750 500" version="1.1" xmlns:xlink="http://www.w3.org/1999/xlink" xmlns:svgjs="http://svgjs.com/svgjs"><style>svg#freepik_stories-in-progress:not(.animated) .animable {opacity: 0;}svg#freepik_stories-in-progress.animated #freepik--background-complete--inject-109 {animation: 1.5s Infinite  linear floating;animation-delay: 0s;}svg#freepik_stories-in-progress.animated #freepik--Gears--inject-109 {animation: 1.5s Infinite  linear wind;animation-delay: 0s;}svg#freepik_stories-in-progress.animated #freepik--Stairs--inject-109 {animation: 1.5s Infinite  linear floating;animation-delay: 0s;}svg#freepik_stories-in-progress.animated #freepik--Character--inject-109 {animation: 1.4s 1 forwards cubic-bezier(.36,-0.01,.5,1.38) slideLeft;animation-delay: 0s;}            @keyframes floating {                0% {                    opacity: 1;                    transform: translateY(0px);                }                50% {                    transform: translateY(-10px);                }                100% {                    opacity: 1;                    transform: translateY(0px);                }            }                    @keyframes wind {                0% {                    transform: rotate( 0deg );                }                25% {                    transform: rotate( 1deg );                }                75% {                    transform: rotate( -1deg );                }            }                    @keyframes slideLeft {                0% {                    opacity: 0;                    transform: translateX(-30px);                }                100% {                    opacity: 1;                    transform: translateX(0);                }            }        </style><g id="freepik--background-complete--inject-109" class="animable" style="transform-origin: 375.945px 165.792px;"><path d="M634.39,194.16l8.18-13.45,0,.2-4.33-2.64a3.81,3.81,0,0,1-1.5-2.14,3.89,3.89,0,0,1-.15-1.32l0-1.25,0-1.26a4.19,4.19,0,0,1,.21-1.32,4,4,0,0,1,1.63-2.1l4.46-2.43-.12.4L635.36,153l.5.16-4.47,2.42a4.17,4.17,0,0,1-2.74.25,4,4,0,0,1-1.28-.59l-1.06-.65-1.06-.65a4.26,4.26,0,0,1-1.1-.88,4.16,4.16,0,0,1-1-2.58l.14-5.09.43.46L608,145.39l.48-.45L608.3,150a4.13,4.13,0,0,1-1.18,2.54,4.32,4.32,0,0,1-1.16.83l-1.11.56-1.08.62a4.19,4.19,0,0,1-4.11.1L595.32,152l.69-.16-8.32,13.35-.15-.65,4.31,2.7a4.1,4.1,0,0,1,1.6,2.29,4.39,4.39,0,0,1,.14,1.4l-.05,1.25,0,1.25a4.41,4.41,0,0,1-.24,1.39,4.12,4.12,0,0,1-1.72,2.18l-4.48,2.41.18-.6,7.4,13.89-.54-.16,4.5-2.37a4.19,4.19,0,0,1,4,.36l1.07.67,1.07.66a4.16,4.16,0,0,1,1,.87,4,4,0,0,1,1,2.52l-.18,5.07-.28-.3,15.72.6-.19.18.21-5.07a3.78,3.78,0,0,1,1.12-2.3,22.64,22.64,0,0,1,4.5-2.36,3.74,3.74,0,0,1,2.48.38Zm0,0-4.32-2.62a3.63,3.63,0,0,0-2.42-.33,8,8,0,0,0-2.24,1.09,7.84,7.84,0,0,0-2.12,1.3,3.51,3.51,0,0,0-1,2.17l-.12,5V201H622l-15.73-.38H606v-.3l.12-5a3.32,3.32,0,0,0-.84-2.09,3.69,3.69,0,0,0-.89-.73l-1.09-.66-1.09-.66a3.39,3.39,0,0,0-1-.46,3.35,3.35,0,0,0-2.23.18l-4.42,2.4-.35.19-.19-.35-7.48-13.85-.2-.39.38-.21,4.43-2.39a3.29,3.29,0,0,0,1.34-1.72,3.38,3.38,0,0,0,.18-1.1l0-1.27,0-1.27a3.44,3.44,0,0,0-.11-1.11,3.17,3.17,0,0,0-1.24-1.77L587,165.36l-.4-.25.25-.41,8.27-13.38.26-.42.43.26,4.28,2.65a3.18,3.18,0,0,0,2.12.33,3.48,3.48,0,0,0,1-.39l1.11-.64,1.15-.58a3.32,3.32,0,0,0,.9-.63,3.21,3.21,0,0,0,.92-2l.17-5v-.46H608l15.72.52h.44v.44l-.16,5a3.35,3.35,0,0,0,.79,2,3.48,3.48,0,0,0,.87.7l1.09.68,1.09.68a3.45,3.45,0,0,0,1,.47,3.3,3.3,0,0,0,2.21-.18l4.45-2.35.33-.17.18.32,7.36,13.91.14.26-.26.14-4.45,2.36a3.48,3.48,0,0,0-1.43,1.81,9,9,0,0,0-.25,2.43,8.66,8.66,0,0,0,0,2.45A3.43,3.43,0,0,0,638.5,178l4.26,2.71.12.07-.07.12Z" style="fill: rgb(235, 235, 235); transform-origin: 614.925px 172.72px;" id="ele5tf04n8858" class="animable"></path><path d="M622.51,183.34a13.13,13.13,0,0,1-20.64-12.63,13.33,13.33,0,0,1,5.32-8.72,13.51,13.51,0,0,1,10-2.25,13.17,13.17,0,0,1,8.51,5.48,13.68,13.68,0,0,1,2,4.68,12.73,12.73,0,0,1,.07,5.07A13,13,0,0,1,622.51,183.34Zm0,0a12.93,12.93,0,0,0,5.12-8.4,12.53,12.53,0,0,0-2.38-9.43,12.68,12.68,0,0,0-17.49-2.71,12.66,12.66,0,0,0-3,17.43,12.66,12.66,0,0,0,8.18,5.27A13,13,0,0,0,622.51,183.34Z" style="fill: rgb(235, 235, 235); transform-origin: 614.857px 172.677px;" id="elo8ahz1oxo1k" class="animable"></path><path d="M91.58,250.31a2.63,2.63,0,0,1,1.28,2.43c0,.27,0,.54,0,.81s0,.55,0,.82a2.6,2.6,0,0,1-1.28,2.42l-2.93,1.7L94.16,268l2.93-1.69a2.64,2.64,0,0,1,2.75.1,15.38,15.38,0,0,0,1.42.82,2.63,2.63,0,0,1,1.45,2.33V273h11v-3.37a2.63,2.63,0,0,1,1.45-2.33,15.38,15.38,0,0,0,1.42-.82,2.64,2.64,0,0,1,2.75-.1l2.93,1.69,5.5-9.54-2.94-1.7a2.64,2.64,0,0,1-1.27-2.43c0-.27,0-.54,0-.81s0-.54,0-.81a2.63,2.63,0,0,1,1.28-2.43l2.93-1.69-5.5-9.55-2.93,1.69a2.6,2.6,0,0,1-2.74-.09,15.64,15.64,0,0,0-1.43-.83,2.61,2.61,0,0,1-1.45-2.32v-3.38h-11v3.38a2.61,2.61,0,0,1-1.45,2.32,14.4,14.4,0,0,0-1.43.83,2.62,2.62,0,0,1-2.75.09l-2.92-1.69-5.51,9.55Zm16.63-5.79a9,9,0,1,1-9,9A9,9,0,0,1,108.21,244.52Z" style="fill: rgb(235, 235, 235); transform-origin: 108.205px 253.59px;" id="el4r8cod6vlzm" class="animable"></path><path d="M634.57,225.27a2.62,2.62,0,0,1,1.28,2.43c0,.27,0,.54,0,.81s0,.55,0,.82a2.61,2.61,0,0,1-1.27,2.42l-2.94,1.69,5.51,9.55,2.93-1.69a2.62,2.62,0,0,1,2.75.1,15.38,15.38,0,0,0,1.42.82,2.63,2.63,0,0,1,1.45,2.33v3.37h11v-3.37a2.63,2.63,0,0,1,1.45-2.33,15.38,15.38,0,0,0,1.42-.82,2.62,2.62,0,0,1,2.75-.1l2.93,1.69,5.51-9.55-2.95-1.7a2.61,2.61,0,0,1-1.27-2.42c0-.27,0-.54,0-.81s0-.54,0-.81a2.62,2.62,0,0,1,1.28-2.43l2.94-1.69L665.27,214l-2.92,1.69a2.62,2.62,0,0,1-2.75-.09,15.64,15.64,0,0,0-1.43-.83,2.63,2.63,0,0,1-1.45-2.33V209.1h-11v3.37a2.63,2.63,0,0,1-1.45,2.33,15.64,15.64,0,0,0-1.43.83,2.62,2.62,0,0,1-2.75.09L637.15,214l-5.51,9.55Zm16.64-5.79a9,9,0,1,1-9,9A9,9,0,0,1,651.21,219.48Z" style="fill: rgb(235, 235, 235); transform-origin: 651.2px 228.51px;" id="elsly3cw9zfj" class="animable"></path><path d="M168.74,141.77l-87.61-.13s4.36-5.67,9.17-6.37c0,0,9.38-27.79,25-28,14.54-.16,20.34,17.13,20.34,17.13s6.74-7.74,13.17-4.19S158.89,134,158.89,134,166.12,137.87,168.74,141.77Z" style="fill: rgb(235, 235, 235); transform-origin: 124.935px 124.519px;" id="elimltqb5iwmb" class="animable"></path><path d="M558.08,94.12l110.79.17s0-7.08-15.25-8.49c0,0-13.89-31-35.17-26.83C605.2,61.53,598.4,79.72,598.4,79.72s-10-14.33-18-11.58-12.8,18-12.8,18S559.34,90.12,558.08,94.12Z" style="fill: rgb(235, 235, 235); transform-origin: 613.475px 76.437px;" id="elj3g982rdqp" class="animable"></path><path d="M211.45,90.31l75.34.11s-7.1-6.62-10.26-6.63-12.35-22.23-24.13-21.3S234.33,80,234.33,80,220,75.43,211.45,90.31Z" style="fill: rgb(235, 235, 235); transform-origin: 249.12px 76.4408px;" id="els3thk3c9cjt" class="animable"></path><path d="M450.32,137.1l64.43.1s-3.2-4.17-6.73-4.7c0,0-6.84-20.46-18.33-20.62-10.69-.15-15,12.55-15,12.55s-4.94-5.71-9.68-3.11-7.42,10.06-7.42,10.06S452.26,134.24,450.32,137.1Z" style="fill: rgb(235, 235, 235); transform-origin: 482.535px 124.539px;" id="elimj2aa0bcdm" class="animable"></path></g><g id="freepik--Gears--inject-109" class="animable" style="transform-origin: 375px 191.955px;"><path d="M242.59,105.44a32.66,32.66,0,1,0,42.53,18A32.65,32.65,0,0,0,242.59,105.44Zm18,44.4A15.25,15.25,0,1,1,269,130,15.25,15.25,0,0,1,260.59,149.84Z" style="fill: rgb(64, 123, 255); transform-origin: 254.853px 135.709px;" id="elebig63e7vn8" class="animable"></path><polygon points="248.92 104.34 237.28 109.06 234.59 100.56 244.94 96.36 248.92 104.34" style="fill: rgb(64, 123, 255); transform-origin: 241.755px 102.71px;" id="ell78bqa7i1c9" class="animable"></polygon><polygon points="228.36 117.24 223.47 128.81 215.55 124.7 219.9 114.42 228.36 117.24" style="fill: rgb(64, 123, 255); transform-origin: 221.955px 121.615px;" id="elu72yncfob5p" class="animable"></polygon><polygon points="222.94 140.9 227.66 152.54 219.16 155.23 214.97 144.88 222.94 140.9" style="fill: rgb(64, 123, 255); transform-origin: 221.315px 148.065px;" id="el9fucreb763" class="animable"></polygon><polygon points="235.84 161.46 247.41 166.36 243.3 174.27 233.02 169.92 235.84 161.46" style="fill: rgb(64, 123, 255); transform-origin: 240.215px 167.865px;" id="elolwcl81os9i" class="animable"></polygon><polygon points="259.5 166.88 271.14 162.16 273.84 170.66 263.49 174.86 259.5 166.88" style="fill: rgb(64, 123, 255); transform-origin: 266.67px 168.51px;" id="elluojlvt7qk" class="animable"></polygon><polygon points="280.06 153.98 284.96 142.42 292.88 146.52 288.52 156.81 280.06 153.98" style="fill: rgb(64, 123, 255); transform-origin: 286.47px 149.615px;" id="elv1z7yo1jl8" class="animable"></polygon><polygon points="285.48 130.32 280.77 118.68 289.26 115.99 293.46 126.34 285.48 130.32" style="fill: rgb(64, 123, 255); transform-origin: 287.115px 123.155px;" id="elrw4n2cjgegr" class="animable"></polygon><polygon points="272.58 109.76 261.02 104.86 265.12 96.95 275.41 101.3 272.58 109.76" style="fill: rgb(64, 123, 255); transform-origin: 268.215px 103.355px;" id="el6ag01jba7ln" class="animable"></polygon><path d="M352,168.74a39.08,39.08,0,1,0,39.05,39.08A39.12,39.12,0,0,0,352,168.74Zm0,69.83a30.76,30.76,0,1,1,30.74-30.75A30.75,30.75,0,0,1,352,238.57Zm0-69.83a39.08,39.08,0,1,0,39.05,39.08A39.12,39.12,0,0,0,352,168.74Zm0,69.83a30.76,30.76,0,1,1,30.74-30.75A30.75,30.75,0,0,1,352,238.57Zm0-96.63a65.87,65.87,0,1,0,65.85,65.88A65.88,65.88,0,0,0,352,141.94Zm0,108.7a42.83,42.83,0,1,1,42.8-42.82A42.88,42.88,0,0,1,352,250.64Zm0-81.9a39.08,39.08,0,1,0,39.05,39.08A39.12,39.12,0,0,0,352,168.74Zm0,69.83a30.76,30.76,0,1,1,30.74-30.75A30.75,30.75,0,0,1,352,238.57Z" style="fill: rgb(64, 123, 255); transform-origin: 351.98px 207.81px;" id="elh138opzh9bo" class="animable"></path><polygon points="359.74 143.14 344.66 143.14 346.16 128.08 358.24 128.08 359.74 143.14" style="fill: rgb(64, 123, 255); transform-origin: 352.2px 135.61px;" id="elj1bnx7g321" class="animable"></polygon><polygon points="326.36 147.93 313.3 155.47 307.08 141.69 317.54 135.65 326.36 147.93" style="fill: rgb(64, 123, 255); transform-origin: 316.72px 145.56px;" id="elsxry18chrdm" class="animable"></polygon><polygon points="299.86 168.78 292.32 181.84 280.03 173.01 286.07 162.55 299.86 168.78" style="fill: rgb(64, 123, 255); transform-origin: 289.945px 172.195px;" id="elp6sr36h4h3c" class="animable"></polygon><polygon points="287.33 200.08 287.33 215.16 272.27 213.66 272.27 201.58 287.33 200.08" style="fill: rgb(64, 123, 255); transform-origin: 279.8px 207.62px;" id="elasze8601uj7" class="animable"></polygon><polygon points="292.12 233.45 299.66 246.51 285.88 252.74 279.84 242.28 292.12 233.45" style="fill: rgb(64, 123, 255); transform-origin: 289.75px 243.095px;" id="el88m64ja8o2x" class="animable"></polygon><polygon points="312.96 259.96 326.03 267.5 317.2 279.79 306.74 273.75 312.96 259.96" style="fill: rgb(64, 123, 255); transform-origin: 316.385px 269.875px;" id="elg1l32rk05p" class="animable"></polygon><polygon points="344.27 272.49 359.35 272.49 357.85 287.55 345.77 287.55 344.27 272.49" style="fill: rgb(64, 123, 255); transform-origin: 351.81px 280.02px;" id="el4qpp7wk2eyh" class="animable"></polygon><polygon points="377.64 267.69 390.7 260.15 396.93 273.94 386.47 279.98 377.64 267.69" style="fill: rgb(64, 123, 255); transform-origin: 387.285px 270.065px;" id="eltu087m1avuo" class="animable"></polygon><polygon points="404.15 246.85 411.69 233.79 423.97 242.62 417.94 253.08 404.15 246.85" style="fill: rgb(64, 123, 255); transform-origin: 414.06px 243.435px;" id="elyp9hab28te" class="animable"></polygon><polygon points="416.68 215.55 416.68 200.47 431.73 201.97 431.73 214.05 416.68 215.55" style="fill: rgb(64, 123, 255); transform-origin: 424.205px 208.01px;" id="el8zug73t74ot" class="animable"></polygon><polygon points="411.88 182.17 404.34 169.11 418.13 162.89 424.17 173.35 411.88 182.17" style="fill: rgb(64, 123, 255); transform-origin: 414.255px 172.53px;" id="eltqyive5ytv9" class="animable"></polygon><polygon points="391.04 155.67 377.98 148.13 386.81 135.84 397.27 141.88 391.04 155.67" style="fill: rgb(64, 123, 255); transform-origin: 387.625px 145.755px;" id="elst3arsb31ge" class="animable"></polygon><path d="M520.59,182.72a41.81,41.81,0,1,0-16,56.95A41.81,41.81,0,0,0,520.59,182.72ZM467.13,212.8a19.52,19.52,0,1,1,26.58,7.44A19.52,19.52,0,0,1,467.13,212.8Z" style="fill: rgb(64, 123, 255); transform-origin: 484.141px 203.202px;" id="eluotfwbklkta" class="animable"></path><polygon points="523.01 190.58 515.13 176.56 525.49 171.76 532.5 184.22 523.01 190.58" style="fill: rgb(64, 123, 255); transform-origin: 523.815px 181.17px;" id="elj3r1ma82fat" class="animable"></polygon><polygon points="503.29 166.56 487.81 162.22 491.73 151.5 505.5 155.36 503.29 166.56" style="fill: rgb(64, 123, 255); transform-origin: 496.655px 159.03px;" id="elz1789f9k5vm" class="animable"></polygon><polygon points="472.36 163.52 458.34 171.41 453.54 161.05 466 154.04 472.36 163.52" style="fill: rgb(64, 123, 255); transform-origin: 462.95px 162.725px;" id="eldy8oprio6s" class="animable"></polygon><polygon points="448.34 183.25 444 198.73 433.28 194.81 437.14 181.04 448.34 183.25" style="fill: rgb(64, 123, 255); transform-origin: 440.81px 189.885px;" id="eltgn7hxdj08o" class="animable"></polygon><polygon points="445.3 214.18 453.19 228.19 442.83 233 435.82 220.53 445.3 214.18" style="fill: rgb(64, 123, 255); transform-origin: 444.505px 223.59px;" id="eldlk5kfmdmff" class="animable"></polygon><polygon points="465.03 238.2 480.51 242.53 476.59 253.25 462.82 249.4 465.03 238.2" style="fill: rgb(64, 123, 255); transform-origin: 471.665px 245.725px;" id="elnz8b8b1pry" class="animable"></polygon><polygon points="495.96 241.24 509.98 233.35 514.78 243.71 502.31 250.72 495.96 241.24" style="fill: rgb(64, 123, 255); transform-origin: 505.37px 242.035px;" id="elpmzc8uflv3" class="animable"></polygon><polygon points="519.98 221.51 524.32 206.03 535.03 209.95 531.18 223.72 519.98 221.51" style="fill: rgb(64, 123, 255); transform-origin: 527.505px 214.875px;" id="elw5j3l7u8ivm" class="animable"></polygon></g><g id="freepik--Stairs--inject-109" class="animable" style="transform-origin: 399.135px 346.37px;"><polygon points="638.76 265.47 638.76 427.27 127.92 427.27 127.92 386.78 255.63 386.78 255.63 346.35 383.33 346.35 383.33 305.91 511.05 305.91 511.05 265.47 638.76 265.47" style="fill: rgb(64, 123, 255); transform-origin: 383.34px 346.37px;" id="elpq4epu2klys" class="animable"></polygon><g id="elcw59gones7"><polygon points="638.76 265.47 638.76 427.27 127.92 427.27 127.92 386.78 255.63 386.78 255.63 346.35 383.33 346.35 383.33 305.91 511.05 305.91 511.05 265.47 638.76 265.47" style="opacity: 0.1; transform-origin: 383.34px 346.37px;" class="animable"></polygon></g><polygon points="670.35 265.47 670.35 427.27 159.51 427.27 159.51 386.78 287.22 386.78 287.22 346.35 414.92 346.35 414.92 305.91 542.64 305.91 542.64 265.47 670.35 265.47" style="fill: rgb(64, 123, 255); transform-origin: 414.93px 346.37px;" id="el4j9tmckyh8" class="animable"></polygon></g><g id="freepik--Arrow--inject-109" class="animable" style="transform-origin: 384.62px 347.015px;"><polygon points="163.74 426.56 162.06 421.85 227.8 398.36 228.17 398.34 288.56 395.36 353.43 359.1 414.22 363.35 474.31 321.25 542.39 324.34 592.34 277.86 595.75 281.52 544.26 329.43 475.78 326.32 415.64 368.46 354.57 364.19 289.97 400.3 228.79 403.32 163.74 426.56" style="fill: rgb(38, 50, 56); transform-origin: 378.905px 352.21px;" id="elmi60eyzpy8" class="animable"></polygon><polygon points="599.86 291.3 607.18 267.47 582.88 273.05 599.86 291.3" style="fill: rgb(38, 50, 56); transform-origin: 595.03px 279.385px;" id="el6pt3zufat2v" class="animable"></polygon><circle cx="228.29" cy="401.55" r="7.36" style="fill: rgb(255, 255, 255); transform-origin: 228.29px 401.55px;" id="elm13q47o3es" class="animable"></circle><path d="M228.29,411.41a9.86,9.86,0,1,1,9.86-9.86A9.87,9.87,0,0,1,228.29,411.41Zm0-14.72a4.86,4.86,0,1,0,4.86,4.86A4.87,4.87,0,0,0,228.29,396.69Z" style="fill: rgb(38, 50, 56); transform-origin: 228.29px 401.55px;" id="eltvd7dhk607" class="animable"></path><circle cx="475.17" cy="323.8" r="7.36" style="fill: rgb(255, 255, 255); transform-origin: 475.17px 323.8px;" id="elnq88tqs0pf" class="animable"></circle><path d="M475.17,333.66A9.86,9.86,0,1,1,485,323.8,9.87,9.87,0,0,1,475.17,333.66Zm0-14.72A4.86,4.86,0,1,0,480,323.8,4.87,4.87,0,0,0,475.17,318.94Z" style="fill: rgb(38, 50, 56); transform-origin: 475.14px 323.8px;" id="eljo67cjz2ayr" class="animable"></path><circle cx="354.13" cy="361.65" r="7.36" style="fill: rgb(255, 255, 255); transform-origin: 354.13px 361.65px;" id="elx5oqei7px1k" class="animable"></circle><path d="M354.13,371.51a9.87,9.87,0,1,1,9.86-9.86A9.87,9.87,0,0,1,354.13,371.51Zm0-14.73a4.87,4.87,0,1,0,4.86,4.87A4.87,4.87,0,0,0,354.13,356.78Z" style="fill: rgb(38, 50, 56); transform-origin: 354.12px 361.64px;" id="elrauckqq2k7r" class="animable"></path></g><g id="freepik--Flag--inject-109" class="animable" style="transform-origin: 575.48px 173.44px;"><g id="el35biaiq37lu"><rect x="602.12" y="81.41" width="3.9" height="184.06" style="fill: rgb(38, 50, 56); transform-origin: 604.07px 173.44px; transform: rotate(180deg);" class="animable"></rect></g><polygon points="593.16 265.47 614.99 265.47 612.48 241.97 595.67 241.97 593.16 265.47" style="fill: rgb(199, 199, 199); transform-origin: 604.075px 253.72px;" id="el7hpa0972qob" class="animable"></polygon><path d="M569,144.2l0-42.31a6.62,6.62,0,0,1-.35,2.12,7.65,7.65,0,0,1-1.13,2.12c-3.7,5-14.28,8.38-31.55,10.11l0,42.31c17.26-1.73,27.84-5.12,31.55-10.11a7.88,7.88,0,0,0,1.12-2.12A6.35,6.35,0,0,0,569,144.2Z" style="fill: rgb(64, 123, 255); transform-origin: 552.485px 130.22px;" id="elhqnztvall8f" class="animable"></path><g id="elhwc12ynrbg9"><g style="opacity: 0.1; transform-origin: 552.485px 130.22px;" class="animable"><path d="M569,144.2l0-42.31a6.62,6.62,0,0,1-.35,2.12,7.65,7.65,0,0,1-1.13,2.12c-3.7,5-14.28,8.38-31.55,10.11l0,42.31c17.26-1.73,27.84-5.12,31.55-10.11a7.88,7.88,0,0,0,1.12-2.12A6.35,6.35,0,0,0,569,144.2Z" id="elg9wpxggxra4" class="animable" style="transform-origin: 552.485px 130.22px;"></path></g></g><path d="M568.16,138.18a14,14,0,0,0,.45,3.07,13.3,13.3,0,0,1,.43,2.95l0-42.31a13.3,13.3,0,0,0-.43-3,14,14,0,0,1-.45-3.07C568.19,108.57,568.17,125.49,568.16,138.18Z" style="fill: rgb(64, 123, 255); transform-origin: 568.6px 120.01px;" id="el1sh68xlai9u" class="animable"></path><g id="elp9fvprp1g9p"><g style="opacity: 0.4; transform-origin: 568.6px 120.01px;" class="animable"><path d="M568.16,138.18a14,14,0,0,0,.45,3.07,13.3,13.3,0,0,1,.43,2.95l0-42.31a13.3,13.3,0,0,0-.43-3,14,14,0,0,1-.45-3.07C568.19,108.57,568.17,125.49,568.16,138.18Z" id="elzh5gi1ub7mj" class="animable" style="transform-origin: 568.6px 120.01px;"></path></g></g><path d="M568.2,95.87l0,42.31a6.83,6.83,0,0,1,.44-2.42,7.92,7.92,0,0,1,1.13-2.07c3.85-5.18,14.6-8.33,32.71-9.58l0-42.31c-18.11,1.25-28.86,4.4-32.71,9.58a7.92,7.92,0,0,0-1.13,2.07A6.83,6.83,0,0,0,568.2,95.87Z" style="fill: rgb(64, 123, 255); transform-origin: 585.34px 109.99px;" id="el7tr6xz4hu9o" class="animable"></path></g><g id="freepik--Floor--inject-109" class="animable" style="transform-origin: 375px 432.81px;"><rect x="55.28" y="427.27" width="639.43" height="10.58" style="fill: rgb(199, 199, 199); transform-origin: 374.995px 432.56px;" id="el99m2rcodgqj" class="animable"></rect><path d="M88.18,427.27a28.23,28.23,0,0,1,0,10.58,28.23,28.23,0,0,1,0-10.58Z" style="fill: rgb(38, 50, 56); transform-origin: 88.18px 432.56px;" id="el79qr92u02gw" class="animable"></path><path d="M126.43,427.27a28.23,28.23,0,0,1,0,10.58,28.23,28.23,0,0,1,0-10.58Z" style="fill: rgb(38, 50, 56); transform-origin: 126.43px 432.56px;" id="elldylgg3wcs" class="animable"></path><path d="M164.67,427.27a28.23,28.23,0,0,1,0,10.58,28.23,28.23,0,0,1,0-10.58Z" style="fill: rgb(38, 50, 56); transform-origin: 164.67px 432.56px;" id="elzfkhsqzhcc" class="animable"></path><path d="M202.91,427.27a25.62,25.62,0,0,1,.5,5.29,24.37,24.37,0,0,1-.5,5.29,24.37,24.37,0,0,1-.5-5.29A25.62,25.62,0,0,1,202.91,427.27Z" style="fill: rgb(38, 50, 56); transform-origin: 202.91px 432.56px;" id="el0vfkfb3dl72n" class="animable"></path><path d="M241.15,427.27a28.23,28.23,0,0,1,0,10.58,28.23,28.23,0,0,1,0-10.58Z" style="fill: rgb(38, 50, 56); transform-origin: 241.15px 432.56px;" id="ele4rfe3raj4" class="animable"></path><path d="M279.39,427.27a28.23,28.23,0,0,1,0,10.58,28.23,28.23,0,0,1,0-10.58Z" style="fill: rgb(38, 50, 56); transform-origin: 279.39px 432.56px;" id="el614vulu1r99" class="animable"></path><path d="M317.64,427.27a28.23,28.23,0,0,1,0,10.58,28.23,28.23,0,0,1,0-10.58Z" style="fill: rgb(38, 50, 56); transform-origin: 317.64px 432.56px;" id="elw1zf59wccfn" class="animable"></path><path d="M355.88,427.27a25.62,25.62,0,0,1,.5,5.29,25,25,0,0,1-.5,5.29,24.37,24.37,0,0,1-.5-5.29A25,25,0,0,1,355.88,427.27Z" style="fill: rgb(38, 50, 56); transform-origin: 355.88px 432.56px;" id="el7e885gri1q" class="animable"></path><path d="M394.12,427.27a25,25,0,0,1,.5,5.29,24.37,24.37,0,0,1-.5,5.29,25,25,0,0,1-.5-5.29A25.62,25.62,0,0,1,394.12,427.27Z" style="fill: rgb(38, 50, 56); transform-origin: 394.12px 432.56px;" id="elr43bsth7czo" class="animable"></path><path d="M432.36,427.27a28.23,28.23,0,0,1,0,10.58,28.23,28.23,0,0,1,0-10.58Z" style="fill: rgb(38, 50, 56); transform-origin: 432.36px 432.56px;" id="elwdpmrnyy72j" class="animable"></path><path d="M470.61,427.27a28.23,28.23,0,0,1,0,10.58,28.23,28.23,0,0,1,0-10.58Z" style="fill: rgb(38, 50, 56); transform-origin: 470.61px 432.56px;" id="elq345977h4sa" class="animable"></path><path d="M508.85,427.27a28.23,28.23,0,0,1,0,10.58,28.23,28.23,0,0,1,0-10.58Z" style="fill: rgb(38, 50, 56); transform-origin: 508.85px 432.56px;" id="el34gvnn448tk" class="animable"></path><path d="M547.09,427.27a25.62,25.62,0,0,1,.5,5.29,24.37,24.37,0,0,1-.5,5.29,24.37,24.37,0,0,1-.5-5.29A25.62,25.62,0,0,1,547.09,427.27Z" style="fill: rgb(38, 50, 56); transform-origin: 547.09px 432.56px;" id="elytgha7pcncd" class="animable"></path><path d="M585.33,427.27a28.23,28.23,0,0,1,0,10.58,28.23,28.23,0,0,1,0-10.58Z" style="fill: rgb(38, 50, 56); transform-origin: 585.33px 432.56px;" id="elddz7vbvcqcw" class="animable"></path><path d="M623.57,427.27a28.23,28.23,0,0,1,0,10.58,28.23,28.23,0,0,1,0-10.58Z" style="fill: rgb(38, 50, 56); transform-origin: 623.57px 432.56px;" id="elbn1rbxbg0c" class="animable"></path><path d="M661.82,427.27a28.23,28.23,0,0,1,0,10.58,28.23,28.23,0,0,1,0-10.58Z" style="fill: rgb(38, 50, 56); transform-origin: 661.82px 432.56px;" id="elvk2f09cqcx9" class="animable"></path><polygon points="56.4 437.85 136.19 437.6 215.98 437.52 375.56 437.35 535.14 437.51 614.93 437.6 694.72 437.85 614.93 438.09 535.14 438.18 375.56 438.35 215.98 438.18 136.19 438.09 56.4 437.85" style="fill: rgb(38, 50, 56); transform-origin: 375.56px 437.85px;" id="elli69gqraygk" class="animable"></polygon></g><g id="freepik--Character--inject-109" class="animable animator-active" style="transform-origin: 159.005px 259.966px;"><path d="M139.9,151.33c-18.17,14.24-34.34,31.51-33.67,38.54.9,9.46,12.92,28.43,20.07,37.7,2.1,2.73,23-14,20.73-17-2.71-3.52-17-21.52-17.18-21.93-.33-.9,12.05-24.4,15.15-29.94C150.17,149.47,148,145,139.9,151.33Z" style="fill: rgb(235, 148, 129); transform-origin: 127.003px 188.121px;" id="el0f0b8flije5o" class="animable"></path><path d="M137.74,240.94c-4.8-3.12-12.13-13.32-13-16.46s16.11-16.18,19.34-15.33,18.57,12.57,20.41,18.11S142.71,244.16,137.74,240.94Z" style="fill: rgb(235, 148, 129); transform-origin: 144.65px 225.307px;" id="elp9lblxve8gb" class="animable"></path><path d="M160,219.31c-3-.1-1.41,3.53-1.41,3.53s-3.59-4.66-6.75-3.55-.93,5.39-.78,5.7c-.2-.24-3.61-4.43-6.67-3s-.32,5.46-.13,5.72c-.25-.18-3.65-2.42-5.73-.79-3.57,2.79,5,8.76,5.45,12.4,0,0-6.07,1.53-6.24,1.61,0,0,8,5.85,12.87,4.92a3.16,3.16,0,0,0,2.61-3s2.37,2.18,4.82,1.12c1.26-.55,1.5-3.05,1.5-3.05a4,4,0,0,0,4.08.59c1.7-.86,1.67-3.23,1.67-3.23s2.64.72,4.08-.72C172.29,234.7,166.49,219.52,160,219.31Z" style="fill: rgb(235, 148, 129); transform-origin: 153.904px 232.535px;" id="elts50nj43jck" class="animable"></path><path d="M165.35,237.94a0,0,0,1,0,.08,0,28.22,28.22,0,0,0-6.9-15.29c-.13-.13-.4,0-.29.19A57.46,57.46,0,0,1,165.35,237.94Z" style="fill: rgb(38, 50, 56); transform-origin: 161.822px 230.269px;" id="el4n54rnj9xh4" class="animable"></path><path d="M159.6,241c0,.06.11,0,.11,0a26.44,26.44,0,0,0-8.58-16.21c-.16-.14-.46-.1-.28.08C153.91,227.85,158.15,236,159.6,241Z" style="fill: rgb(38, 50, 56); transform-origin: 155.252px 232.866px;" id="el3e4xwxvzpa9" class="animable"></path><path d="M143.82,227.55c4.55,4.15,7.32,9.35,9.39,15.1,0,.07.13,0,.12,0-.24-3.09-2-6.61-3.5-9.25a16.24,16.24,0,0,0-5.87-6C143.86,227.33,143.72,227.46,143.82,227.55Z" style="fill: rgb(38, 50, 56); transform-origin: 148.558px 235.031px;" id="elbl6da6yeq1t" class="animable"></path><path d="M158.59,222.84a18.52,18.52,0,0,0-2.52-2.26,6.18,6.18,0,0,0-3-1.31,2.1,2.1,0,0,0-1.41.39,3.07,3.07,0,0,0-.93,1.19,3.66,3.66,0,0,0,.27,2.94l1.13,2.21-1.83-1.69a10.24,10.24,0,0,0-2.73-1.84,3.62,3.62,0,0,0-3-.19,2.07,2.07,0,0,0-1.31,2.26,6.28,6.28,0,0,0,1.32,2.86l1.78,2.35L144,228.12A9.23,9.23,0,0,0,141.8,227a3.9,3.9,0,0,0-2.27-.19,1.9,1.9,0,0,0-1.36,1.44,4.21,4.21,0,0,0,.52,2.25,32,32,0,0,0,2.78,4.29c.49.7,1,1.41,1.46,2.14a6.12,6.12,0,0,1,1,2.36,6.81,6.81,0,0,0-1.24-2.23c-.52-.68-1.07-1.34-1.62-2a27.17,27.17,0,0,1-3.06-4.23,4.78,4.78,0,0,1-.71-2.68,2.65,2.65,0,0,1,1.92-2.19,4.81,4.81,0,0,1,2.82.15,10.4,10.4,0,0,1,2.45,1.17l-.66.72a7.27,7.27,0,0,1-1.59-3.37,3.06,3.06,0,0,1,.4-2,3.43,3.43,0,0,1,1.54-1.29,4.52,4.52,0,0,1,3.75.24,11.05,11.05,0,0,1,3,2.07l-.71.53a4.32,4.32,0,0,1-.14-3.65,3.7,3.7,0,0,1,1.22-1.41,2.63,2.63,0,0,1,1.82-.42,6.34,6.34,0,0,1,3.1,1.61A15,15,0,0,1,158.59,222.84Z" style="fill: rgb(38, 50, 56); transform-origin: 147.944px 228.983px;" id="el1tfspiujmml" class="animable"></path><path d="M147.09,210.68s23.92,4.12,17.73,12.68c-1.84,2.55-12.43,10.8-14.13,8.7-2.19-2.7,1.59-7,4.38-9.27,0,0-8.33-.26-9.88-6.12A6,6,0,0,1,147.09,210.68Z" style="fill: rgb(235, 148, 129); transform-origin: 155.428px 221.539px;" id="el41bb9f6ggo3" class="animable"></path><path d="M165.29,222.62a12.57,12.57,0,0,1-2.25,2.93,27.1,27.1,0,0,1-2.77,2.48,42.26,42.26,0,0,1-6.19,4.14,7,7,0,0,1-1.84.7,2.69,2.69,0,0,1-1.13,0,1.79,1.79,0,0,1-1-.65,3.11,3.11,0,0,1-.66-2.07,5.86,5.86,0,0,1,.47-2,11.28,11.28,0,0,1,2.16-3.16,24.51,24.51,0,0,1,2.75-2.55l.27.75a15.25,15.25,0,0,1-2.81-.45,14.58,14.58,0,0,1-2.66-1,10.07,10.07,0,0,1-2.31-1.61,7.37,7.37,0,0,1-1.63-2.26,8.27,8.27,0,0,0,1.83,2,10.07,10.07,0,0,0,2.34,1.34,13,13,0,0,0,2.58.78,14.35,14.35,0,0,0,2.67.29h1.1l-.83.76a26.71,26.71,0,0,0-2.57,2.53,10.85,10.85,0,0,0-1.94,2.92,3,3,0,0,0,0,3c.47.69,1.75.25,2.79-.25a34.25,34.25,0,0,0,3.15-1.79c1-.64,2.08-1.29,3.07-2A23.12,23.12,0,0,0,165.29,222.62Z" style="fill: rgb(38, 50, 56); transform-origin: 155.49px 225.4px;" id="el1lawdrbs7cw" class="animable"></path><path d="M137.34,197.54l-24.09,14.21s-8.55-17.6-7.12-23.82,17.33-25.13,30.22-34.73,15.25-5.08,7.42,9.26-13.18,25.58-13,26S137.34,197.54,137.34,197.54Z" style="fill: rgb(64, 123, 255); transform-origin: 127.116px 179.936px;" id="elv5eny8nhbz" class="animable"></path><path d="M141.84,152.54a.36.36,0,0,1-.71,0,.36.36,0,0,1,.71,0Zm3.37-4.29h0a.32.32,0,0,1-.23.09.12.12,0,0,1-.08,0m-17.35,13.37a.35.35,0,0,0-.35.35.36.36,0,0,0,.71,0A.35.35,0,0,0,127.54,161.69Zm7,0a.35.35,0,0,0-.36.35.36.36,0,0,0,.71,0A.35.35,0,0,0,134.52,161.69Zm7,0a.35.35,0,0,0-.36.35.36.36,0,0,0,.71,0A.35.35,0,0,0,141.49,161.69Zm-10.18-4.4-.52.46a.37.37,0,0,0,.24.09.35.35,0,0,0,.35-.35A.31.31,0,0,0,131.31,157.29Zm6.69-.16a.36.36,0,0,0,0,.71.36.36,0,0,0,0-.71Zm7,0a.36.36,0,1,0,.36.36A.36.36,0,0,0,145,157.13Zm-24.4,14.06a.35.35,0,0,0-.35.35.35.35,0,0,0,.35.35.35.35,0,0,0,.35-.35A.34.34,0,0,0,120.57,171.19Zm7,0a.35.35,0,0,0-.35.35.36.36,0,0,0,.71,0A.35.35,0,0,0,127.54,171.19Zm7,0a.35.35,0,0,0-.36.35.36.36,0,0,0,.71,0A.35.35,0,0,0,134.52,171.19Zm-10.46-4.56a.36.36,0,1,0,0,.71.36.36,0,0,0,0-.71Zm7,0a.36.36,0,0,0,0,.71.36.36,0,0,0,0-.71Zm7,0a.36.36,0,0,0,0,.71.36.36,0,0,0,0-.71Zm-24.4,14.05a.36.36,0,1,0,0,.71.36.36,0,0,0,0-.71Zm7,0a.36.36,0,0,0,0,.71.36.36,0,0,0,0-.71Zm7,0a.36.36,0,1,0,.36.36A.36.36,0,0,0,127.54,180.68Zm-10.46-4.55a.36.36,0,0,0,0,.71.36.36,0,1,0,0-.71Zm7,0a.36.36,0,1,0,.35.35A.36.36,0,0,0,124.06,176.13Zm7,0a.36.36,0,0,0,0,.71.36.36,0,0,0,0-.71Zm-24.4,14.05a.36.36,0,1,0,0,.71.36.36,0,0,0,0-.71Zm7,0a.36.36,0,1,0,0,.71.36.36,0,0,0,0-.71Zm7,0a.36.36,0,0,0,0,.71.36.36,0,0,0,0-.71Zm7,0a.36.36,0,1,0,.36.36A.36.36,0,0,0,127.54,190.18Zm-17.43-4.55a.36.36,0,0,0,0,.71.36.36,0,0,0,0-.71Zm7,0a.36.36,0,0,0,0,.71.36.36,0,1,0,0-.71Zm7,0a.36.36,0,1,0,.35.35A.36.36,0,0,0,124.06,185.63Zm7,0a.36.36,0,0,0,0,.71.36.36,0,0,0,0-.71ZM113.6,199.68a.36.36,0,1,0,.35.35A.36.36,0,0,0,113.6,199.68Zm7,0a.36.36,0,0,0,0,.71.36.36,0,0,0,0-.71Zm7,0a.36.36,0,0,0,0,.71.36.36,0,1,0,0-.71Zm-17.43-4.55a.35.35,0,0,0-.35.35.35.35,0,0,0,.35.35.34.34,0,0,0,.35-.35A.35.35,0,0,0,110.11,195.13Zm7,0a.35.35,0,0,0-.35.35.36.36,0,0,0,.71,0A.36.36,0,0,0,117.08,195.13Zm7,0a.36.36,0,0,0-.36.35.36.36,0,0,0,.71,0A.35.35,0,0,0,124.06,195.13Zm7,0a.35.35,0,0,0-.35.35.34.34,0,0,0,.35.35.35.35,0,0,0,.35-.35A.35.35,0,0,0,131,195.13ZM113.6,209.18a.36.36,0,1,0,.35.35A.36.36,0,0,0,113.6,209.18Zm-3.48-4.55.24.6a.36.36,0,0,0,.1-.25A.35.35,0,0,0,110.12,204.63Zm7,0a.35.35,0,0,0-.35.35.36.36,0,0,0,.71,0A.36.36,0,0,0,117.08,204.63Zm7,0a.36.36,0,0,0-.36.35.36.36,0,0,0,.71,0A.35.35,0,0,0,124.06,204.63Z" style="fill: rgb(255, 255, 255); transform-origin: 125.971px 179.075px;" id="el5obigirlsl4" class="animable"></path><path d="M133.17,194.26a.08.08,0,0,0-.07-.14A218,218,0,0,0,111.93,205c-.08,0,0,.18.07.14A220.23,220.23,0,0,0,133.17,194.26Z" style="fill: rgb(38, 50, 56); transform-origin: 122.548px 199.632px;" id="eljogn2t1p258" class="animable"></path><g id="elx61cm58d15j"><path d="M143.77,162.46c-7.82,14.33-13.18,25.58-13,26s6.53,9.11,6.53,9.11l-24.09,14.21a114.77,114.77,0,0,1-6-15.23h0l34.06-46.6C149.72,145.12,150.47,150.2,143.77,162.46Z" style="opacity: 0.1; transform-origin: 127.738px 179.961px;" class="animable"></path></g><path d="M230.48,386.55c-2,.66-59.87.21-62.06-1.21-.84-.52,5.38-51.91,5.38-51.91l37,1.59-6.53,31.35s22.06,10.08,24.31,11.89S232.51,385.89,230.48,386.55Z" style="fill: rgb(235, 148, 129); transform-origin: 199.867px 360.139px;" id="elmnhvdvbfb2a" class="animable"></path><path d="M230.48,386.55c-.89.29-12.55.37-25.54.24l-2.58,0c-2.22,0-4.45-.05-6.67-.09l-2.58-.05h0l-2.54-.05c-1.3,0-2.56-.06-3.8-.09l-2.37-.07h0l-2.27-.07h0c-1.11,0-2.18-.07-3.19-.12-.69,0-1.36,0-2-.08-1.26-.05-2.41-.11-3.42-.18l-1.44-.1c-1.11-.09-2-.18-2.61-.27a3.18,3.18,0,0,1-1-.25c-.29-.18-.1-6.44.26-14.57,5.58,1.31,15.8,3.36,31.42,5.6,25.68,3.7,18-3.21,13.67-5.56l-.13-.07.82.39a.38.38,0,0,1,.13.06l1.5.71,1.62.78c.91.43,1.81.85,2.67,1.29s1.7.82,2.49,1.22l1.36.67.63.33c.28.14.56.28.83.43.58.3,1.09.57,1.53.82l.3.17c.47.27.81.5,1,.65C230.77,380.06,232.5,385.89,230.48,386.55Z" style="fill: rgb(38, 50, 56); transform-origin: 199.852px 378.81px;" id="el35224q4ge12" class="animable"></path><path d="M206.88,352l-35.42.47s8.49-68,7.5-71.35c-.39-1.3-42.66-42.33-42.66-42.33-16.85-16.61-11.79-43.39-11.79-43.39h36.63s50.27,52.58,56.75,69.7C224.27,281.92,206.88,352,206.88,352Z" style="fill: rgb(235, 148, 129); transform-origin: 171.547px 273.935px;" id="eloxga8i7y0ti" class="animable"></path><path d="M140.2,427.27c-2.11.24-58.69-11.82-60.55-13.64-.72-.69.56-9,2.39-19.07l.06-.32c.37-2.07,10.34-36.69,10.34-36.69l36.87,8.69-10.62,35.38-.15.61s19.59,14.3,21.43,16.53S142.32,427,140.2,427.27Z" style="fill: rgb(235, 148, 129); transform-origin: 110.515px 392.412px;" id="eljbn7a2es1df" class="animable"></path><path d="M81.15,399.55c-1.32,7.69-2.1,13.51-1.5,14.08,1.87,1.83,58.44,13.88,60.56,13.64s1.58-6.29-.25-8.51c-1.11-1.35-8.82-7.19-14.68-11.56,3.93,3.18,9.57,10.78-14.64,3C95.7,405.4,86.36,401.76,81.15,399.55Z" style="fill: rgb(38, 50, 56); transform-origin: 110.513px 413.412px;" id="elrsfgjyee37p" class="animable"></path><path d="M163.8,195.38s3.16,27-2.43,33.2c0,0-11.89,61.28-15.42,79.22-4.67,23.68-24.63,82.88-24.63,82.88L85.38,382s22.18-76.81,22.38-78.36c1.12-8.76,11-69.53,10.5-71-5.18-15.45,2.28-37.24,2.28-37.24Z" style="fill: rgb(235, 148, 129); transform-origin: 125.035px 293.03px;" id="elm6w2bor5dgc" class="animable"></path><path d="M120.54,195.38h43.51s42.54,46.74,49.62,59.71c0,0-5.25,0-21.4,10.38-12.8,8.19-30.45,34.75-54.85,39.1a116.43,116.43,0,0,1-31.29.81s9.15-58,11.75-71.78C118,233.06,112.38,212.23,120.54,195.38Z" style="fill: rgb(38, 50, 56); transform-origin: 159.9px 250.725px;" id="elygsk8kv8gjp" class="animable"></path><path d="M166.52,190.37l-1.25,6.75s-20.44,6.7-44.73-1.74c0,0,5.52-33.95,20.5-45.65,7.49-5.85,14.87-4.11,18.83,1.5,1,1.42,12.23,19.32,12.55,26.82C172.69,184.66,166.52,190.37,166.52,190.37Z" style="fill: rgb(64, 123, 255); transform-origin: 146.484px 172.87px;" id="elhytz773fplh" class="animable"></path><path d="M141.84,152.54a.36.36,0,0,1-.71,0,.36.36,0,0,1,.71,0Zm6.62-.35a.35.35,0,0,0-.35.35.35.35,0,0,0,.7,0A.35.35,0,0,0,148.46,152.19Zm7,0a.35.35,0,0,0-.35.35.36.36,0,0,0,.71,0A.36.36,0,0,0,155.43,152.19ZM145,147.64a.35.35,0,0,0-.35.35.36.36,0,0,0,.71,0A.35.35,0,0,0,145,147.64Zm7,0a.35.35,0,0,0-.36.35.36.36,0,0,0,.71,0A.35.35,0,0,0,152,147.64Zm-17.43,14.05a.35.35,0,0,0-.36.35.36.36,0,0,0,.71,0A.35.35,0,0,0,134.52,161.69Zm7,0a.35.35,0,0,0-.36.35.36.36,0,0,0,.71,0A.35.35,0,0,0,141.49,161.69Zm7,0a.35.35,0,0,0-.35.35.35.35,0,0,0,.7,0A.35.35,0,0,0,148.46,161.69Zm7,0a.35.35,0,0,0-.35.35.36.36,0,0,0,.71,0A.35.35,0,0,0,155.43,161.69Zm7,0a.35.35,0,0,0-.35.35.36.36,0,0,0,.71,0A.35.35,0,0,0,162.4,161.69ZM138,157.13a.36.36,0,0,0,0,.71.36.36,0,0,0,0-.71Zm7,0a.36.36,0,1,0,.36.36A.36.36,0,0,0,145,157.13Zm7,0a.36.36,0,1,0,0,.71.36.36,0,0,0,0-.71Zm7,0a.36.36,0,0,0,0,.71.36.36,0,0,0,0-.71Zm-31.38,14.06a.35.35,0,0,0-.35.35.36.36,0,0,0,.71,0A.35.35,0,0,0,127.54,171.19Zm7,0a.35.35,0,0,0-.36.35.36.36,0,0,0,.71,0A.35.35,0,0,0,134.52,171.19Zm7,0a.35.35,0,0,0-.36.35.36.36,0,0,0,.71,0A.35.35,0,0,0,141.49,171.19Zm7,0a.35.35,0,0,0-.35.35.35.35,0,0,0,.7,0A.35.35,0,0,0,148.46,171.19Zm7,0a.35.35,0,0,0-.35.35.36.36,0,0,0,.71,0A.35.35,0,0,0,155.43,171.19Zm7,0a.35.35,0,0,0-.35.35.36.36,0,0,0,.71,0A.35.35,0,0,0,162.4,171.19Zm7,0a.35.35,0,0,0-.36.35.36.36,0,0,0,.71,0A.35.35,0,0,0,169.38,171.19ZM131,166.63a.36.36,0,0,0,0,.71.36.36,0,0,0,0-.71Zm7,0a.36.36,0,0,0,0,.71.36.36,0,0,0,0-.71Zm7,0a.36.36,0,1,0,.36.36A.36.36,0,0,0,145,166.63Zm7,0a.36.36,0,1,0,0,.71.36.36,0,0,0,0-.71Zm7,0a.36.36,0,0,0,0,.71.36.36,0,0,0,0-.71Zm7,0a.36.36,0,0,0,0,.71.36.36,0,0,0,0-.71Zm-38.35,14.05a.36.36,0,1,0,.36.36A.36.36,0,0,0,127.54,180.68Zm7,0a.36.36,0,1,0,0,.71.36.36,0,0,0,0-.71Zm7,0a.36.36,0,1,0,0,.71.36.36,0,0,0,0-.71Zm7,0a.36.36,0,1,0,.35.36A.36.36,0,0,0,148.46,180.68Zm7,0a.36.36,0,1,0,.36.36A.36.36,0,0,0,155.43,180.68Zm7,0a.36.36,0,1,0,.36.36A.36.36,0,0,0,162.4,180.68Zm7,0a.36.36,0,1,0,0,.71.36.36,0,0,0,0-.71ZM131,176.13a.36.36,0,0,0,0,.71.36.36,0,0,0,0-.71Zm7,0a.36.36,0,0,0,0,.71.36.36,0,0,0,0-.71Zm7,0a.36.36,0,0,0,0,.71.36.36,0,1,0,0-.71Zm7,0a.36.36,0,1,0,.35.35A.36.36,0,0,0,152,176.13Zm7,0a.36.36,0,0,0,0,.71.36.36,0,0,0,0-.71Zm7,0a.36.36,0,0,0,0,.71.36.36,0,0,0,0-.71Zm-38.35,14.05a.36.36,0,1,0,.36.36A.36.36,0,0,0,127.54,190.18Zm7,0a.36.36,0,1,0,0,.71.36.36,0,0,0,0-.71Zm7,0a.36.36,0,1,0,0,.71.36.36,0,0,0,0-.71Zm7,0a.36.36,0,1,0,.35.36A.36.36,0,0,0,148.46,190.18Zm7,0a.36.36,0,1,0,.36.36A.36.36,0,0,0,155.43,190.18Zm7,0a.36.36,0,1,0,.36.36A.36.36,0,0,0,162.4,190.18Zm-38.34-4.55a.36.36,0,1,0,.35.35A.36.36,0,0,0,124.06,185.63Zm7,0a.36.36,0,0,0,0,.71.36.36,0,0,0,0-.71Zm7,0a.36.36,0,0,0,0,.71.36.36,0,0,0,0-.71Zm7,0a.36.36,0,0,0,0,.71.36.36,0,1,0,0-.71Zm7,0a.36.36,0,1,0,.35.35A.36.36,0,0,0,152,185.63Zm7,0a.36.36,0,0,0,0,.71.36.36,0,0,0,0-.71Zm7,0a.36.36,0,0,0,0,.71.36.36,0,0,0,0-.71Zm-41.83,9.5a.36.36,0,0,0-.36.35.36.36,0,0,0,.71,0A.35.35,0,0,0,124.06,195.13Zm7,0a.35.35,0,0,0-.35.35.34.34,0,0,0,.35.35.35.35,0,0,0,.35-.35A.35.35,0,0,0,131,195.13Zm7,0a.35.35,0,0,0-.35.35.35.35,0,0,0,.35.35.34.34,0,0,0,.35-.35A.35.35,0,0,0,138,195.13Zm7,0a.35.35,0,0,0-.35.35.36.36,0,0,0,.71,0A.36.36,0,0,0,145,195.13Zm7,0a.36.36,0,0,0-.36.35.36.36,0,0,0,.71,0A.35.35,0,0,0,152,195.13Zm7,0a.35.35,0,0,0-.35.35.34.34,0,0,0,.35.35.35.35,0,0,0,.35-.35A.35.35,0,0,0,158.92,195.13Zm6.62.35a.11.11,0,0,0,0,.08l.05-.28A.32.32,0,0,0,165.54,195.48Z" style="fill: rgb(255, 255, 255); transform-origin: 146.965px 171.735px;" id="ell4xlshd3zxq" class="animable"></path><path d="M157,155.23a71.61,71.61,0,0,1,3.82,9,64,64,0,0,1,2.57,9.45,35.81,35.81,0,0,1,.65,9.81,14.68,14.68,0,0,1-3.63,9.09l.07-.15c-.19,1-.41,2.06-.63,3.08s-.45,2-.74,3.06c.33-2.07.58-4.14.84-6.22v-.07l.05-.07c2.11-2.41,2.9-5.64,3.14-8.79a41.08,41.08,0,0,0-.69-9.57,87,87,0,0,0-2.3-9.4C159.17,161.33,158.13,158.26,157,155.23Z" style="fill: rgb(38, 50, 56); transform-origin: 160.566px 176.9px;" id="elm4trfojmx4" class="animable"></path><path d="M158.14,161.72a.92.92,0,1,1-.94-.89A.92.92,0,0,1,158.14,161.72Z" style="fill: rgb(38, 50, 56); transform-origin: 157.22px 161.75px;" id="elpgq35ft74q" class="animable"></path><path d="M160.27,170a.92.92,0,1,1-.94-.88A.92.92,0,0,1,160.27,170Z" style="fill: rgb(38, 50, 56); transform-origin: 159.351px 170.04px;" id="el0bgjl0i7qf38" class="animable"></path><path d="M161.68,178.08a.92.92,0,1,1-1-.89A.92.92,0,0,1,161.68,178.08Z" style="fill: rgb(38, 50, 56); transform-origin: 160.76px 178.106px;" id="el7elr07sais8" class="animable"></path><path d="M160.82,186.24a.92.92,0,1,1-1.83.06.92.92,0,0,1,1.83-.06Z" style="fill: rgb(38, 50, 56); transform-origin: 159.908px 186.361px;" id="elmwjn6e5v5xe" class="animable"></path><path d="M159.06,194.86a.92.92,0,0,1-.89.95.92.92,0,1,1,.89-.95Z" style="fill: rgb(38, 50, 56); transform-origin: 158.14px 194.89px;" id="elgy8rzwoe6l9" class="animable"></path><path d="M131.22,162c-1.15,2-2.14,4.14-3.13,6.24s-1.88,4.16-2.67,6.3a91.66,91.66,0,0,0-3.85,13.31,51.88,51.88,0,0,0-1.16,7.63.08.08,0,0,0,.16,0c.57-2.21.94-4.48,1.47-6.71s1.08-4.37,1.7-6.54c1.23-4.37,2.72-8.67,4.36-12.9,1-2.49,2.09-4.88,3.2-7.31A0,0,0,0,0,131.22,162Z" style="fill: rgb(38, 50, 56); transform-origin: 125.855px 178.78px;" id="el30v1aet0o0h" class="animable"></path><path d="M140.6,163.1c5.92,21.4,18.3,39.63,24.85,40.63,9.4,1.43,33.83-3.21,44.78-7.35,3.22-1.22-6.76-26.07-10.2-24.77-4.16,1.57-28.41,9.15-28.86,9.17-.95.06-17.24-18.55-21.17-23.38C142.8,148.53,137.39,151.47,140.6,163.1Z" style="fill: rgb(235, 148, 129); transform-origin: 175.257px 178.11px;" id="elsg646stbvnb" class="animable"></path><path d="M233.46,161.32a4.1,4.1,0,0,1,.25,4.67,6.07,6.07,0,0,1,3.26,2.54c1.23,2.18-1.64,5.07-1.64,5.07a7.44,7.44,0,0,1,3,3.23c1,2.2-1.51,5.53-1.51,5.53a6.56,6.56,0,0,1,.86,4.5c-.87,4.13-6.92,6.35-10.76,7.8s-16.06,2-18.38,2.3L199,172.44s15.35-11.39,20.09-12.45C223.13,159.1,231.4,158.87,233.46,161.32Z" style="fill: rgb(235, 148, 129); transform-origin: 218.783px 178.164px;" id="elvfvvb4m6v0p" class="animable"></path><path d="M233.39,165.66c-4.48-.06-8.74,1.2-13.06,2.21-.1,0-.06.17,0,.15,4.28-1.06,8.72-1.26,13-2.14A.11.11,0,0,0,233.39,165.66Z" style="fill: rgb(38, 50, 56); transform-origin: 226.872px 166.84px;" id="el2bv6zsh42l9" class="animable"></path><path d="M235.13,173.31a11.41,11.41,0,0,0-3,.64c-1,.3-2.08.62-3.11,1q-3.09,1-6.13,2.16c-.09,0-.06.18,0,.15q3.08-1,6.2-1.88l3.14-.84a14.1,14.1,0,0,0,2.92-.9A.16.16,0,0,0,235.13,173.31Z" style="fill: rgb(38, 50, 56); transform-origin: 229.069px 175.287px;" id="ellyn1kdlixs" class="animable"></path><path d="M236.74,182.38a8.11,8.11,0,0,0-2.66.73l-2.8.95c-1.88.63-3.75,1.26-5.65,1.82-.09,0,0,.18,0,.15,1.93-.56,3.86-1.1,5.79-1.67l2.82-.87a7.55,7.55,0,0,0,2.49-1S236.78,182.39,236.74,182.38Z" style="fill: rgb(38, 50, 56); transform-origin: 231.173px 184.207px;" id="el7f6jw3lih4i" class="animable"></path><path d="M181.63,177.22,185.4,204s-17.55,3.71-22.74,0-18-22.8-21.89-38.38,1.59-18.41,11.83-5.69,18.22,20.42,18.67,20.37S181.63,177.22,181.63,177.22Z" style="fill: rgb(64, 123, 255); transform-origin: 162.457px 178.786px;" id="eln9vokadkv1" class="animable"></path><path d="M141.84,152.54a.36.36,0,0,1-.71,0,.36.36,0,0,1,.71,0Z" style="fill: rgb(255, 255, 255); transform-origin: 141.485px 152.54px;" id="el2xgz2p9lcz8" class="animable"></path><path d="M141.84,162a.36.36,0,0,1-.71,0,.36.36,0,0,1,.71,0Z" style="fill: rgb(255, 255, 255); transform-origin: 141.485px 162px;" id="eliyhmgh7ukga" class="animable"></path><path d="M148.81,162a.35.35,0,0,1-.7,0,.35.35,0,0,1,.7,0Z" style="fill: rgb(255, 255, 255); transform-origin: 148.46px 162px;" id="elsm48tm03rik" class="animable"></path><circle cx="144.97" cy="157.49" r="0.35" style="fill: rgb(255, 255, 255); transform-origin: 144.97px 157.49px;" id="elvq3g6296fp" class="animable"></circle><path d="M148.81,171.54a.35.35,0,0,1-.7,0,.35.35,0,0,1,.7,0Z" style="fill: rgb(255, 255, 255); transform-origin: 148.46px 171.54px;" id="elw16neeey35" class="animable"></path><path d="M155.79,171.54a.36.36,0,0,1-.71,0,.36.36,0,0,1,.71,0Z" style="fill: rgb(255, 255, 255); transform-origin: 155.435px 171.54px;" id="elp8w8wbecggh" class="animable"></path><path d="M162.69,171.75a.36.36,0,0,1-.64-.21.32.32,0,0,1,.18-.3Z" style="fill: rgb(255, 255, 255); transform-origin: 162.37px 171.562px;" id="elbt2hjdtwqn" class="animable"></path><path d="M145.33,167a.36.36,0,1,1-.36-.36A.36.36,0,0,1,145.33,167Z" style="fill: rgb(255, 255, 255); transform-origin: 144.97px 167px;" id="el5krj7wttjyk" class="animable"></path><path d="M152.3,167a.36.36,0,0,1-.71,0,.36.36,0,1,1,.71,0Z" style="fill: rgb(255, 255, 255); transform-origin: 151.945px 166.94px;" id="eleuinxzkgurp" class="animable"></path><path d="M148.81,181a.35.35,0,1,1-.35-.36A.35.35,0,0,1,148.81,181Z" style="fill: rgb(255, 255, 255); transform-origin: 148.46px 180.99px;" id="el0r31ndeugk1a" class="animable"></path><path d="M155.79,181a.36.36,0,1,1-.36-.36A.36.36,0,0,1,155.79,181Z" style="fill: rgb(255, 255, 255); transform-origin: 155.43px 181px;" id="elc0tiid493kn" class="animable"></path><path d="M162.76,181a.36.36,0,1,1-.36-.36A.36.36,0,0,1,162.76,181Z" style="fill: rgb(255, 255, 255); transform-origin: 162.4px 181px;" id="elmkohazv676" class="animable"></path><path d="M169.73,181a.36.36,0,0,1-.71,0,.36.36,0,1,1,.71,0Z" style="fill: rgb(255, 255, 255); transform-origin: 169.375px 180.94px;" id="el0z8s3uk4u2in" class="animable"></path><path d="M176.7,181a.35.35,0,0,1-.35.35.36.36,0,0,1,0-.71A.36.36,0,0,1,176.7,181Z" style="fill: rgb(255, 255, 255); transform-origin: 176.375px 180.995px;" id="elgbxys0blv5" class="animable"></path><path d="M145.33,176.48a.36.36,0,1,1-.71,0,.36.36,0,0,1,.71,0Z" style="fill: rgb(255, 255, 255); transform-origin: 144.975px 176.54px;" id="ela7xinsm1z6m" class="animable"></path><path d="M152.3,176.48a.36.36,0,1,1-.35-.35A.36.36,0,0,1,152.3,176.48Z" style="fill: rgb(255, 255, 255); transform-origin: 151.94px 176.49px;" id="elpax7msv6s5n" class="animable"></path><path d="M159.27,176.48a.36.36,0,0,1-.35.36.36.36,0,0,1,0-.71A.35.35,0,0,1,159.27,176.48Z" style="fill: rgb(255, 255, 255); transform-origin: 158.945px 176.485px;" id="elisgyikuwqak" class="animable"></path><path d="M166.24,176.48a.35.35,0,0,1-.35.36.36.36,0,0,1,0-.71A.35.35,0,0,1,166.24,176.48Z" style="fill: rgb(255, 255, 255); transform-origin: 165.915px 176.485px;" id="elshm866hz41" class="animable"></path><path d="M155.79,190.54a.36.36,0,1,1-.36-.36A.36.36,0,0,1,155.79,190.54Z" style="fill: rgb(255, 255, 255); transform-origin: 155.43px 190.54px;" id="eltt1cetpw7m" class="animable"></path><path d="M162.76,190.54a.36.36,0,1,1-.36-.36A.36.36,0,0,1,162.76,190.54Z" style="fill: rgb(255, 255, 255); transform-origin: 162.4px 190.54px;" id="el78aobd4hren" class="animable"></path><path d="M169.73,190.54a.36.36,0,0,1-.71,0,.36.36,0,1,1,.71,0Z" style="fill: rgb(255, 255, 255); transform-origin: 169.375px 190.48px;" id="el11fhhs6olutc" class="animable"></path><path d="M176.7,190.54a.35.35,0,0,1-.35.35.36.36,0,0,1,0-.71A.36.36,0,0,1,176.7,190.54Z" style="fill: rgb(255, 255, 255); transform-origin: 176.375px 190.535px;" id="el48zo9idu0r9" class="animable"></path><path d="M183.54,190.81a.35.35,0,0,1-.22.08.36.36,0,0,1,0-.71.32.32,0,0,1,.14,0Z" style="fill: rgb(255, 255, 255); transform-origin: 183.28px 190.531px;" id="elq39uvzzvfi" class="animable"></path><path d="M152.3,186a.36.36,0,1,1-.35-.35A.36.36,0,0,1,152.3,186Z" style="fill: rgb(255, 255, 255); transform-origin: 151.94px 186.01px;" id="elumbedwarm9" class="animable"></path><path d="M159.27,186a.36.36,0,0,1-.35.36.36.36,0,0,1,0-.71A.35.35,0,0,1,159.27,186Z" style="fill: rgb(255, 255, 255); transform-origin: 158.945px 186.005px;" id="elrpze3xjpk9f" class="animable"></path><path d="M166.24,186a.35.35,0,0,1-.35.36.36.36,0,0,1,0-.71A.35.35,0,0,1,166.24,186Z" style="fill: rgb(255, 255, 255); transform-origin: 165.915px 186.005px;" id="el4vqhxdbqbz" class="animable"></path><path d="M173.22,186a.36.36,0,1,1-.71,0,.36.36,0,0,1,.71,0Z" style="fill: rgb(255, 255, 255); transform-origin: 172.865px 186.06px;" id="el5m76wt9ofyd" class="animable"></path><path d="M180.19,186a.36.36,0,1,1-.35-.35A.36.36,0,0,1,180.19,186Z" style="fill: rgb(255, 255, 255); transform-origin: 179.83px 186.01px;" id="el4a5prcb8xkm" class="animable"></path><circle cx="162.4" cy="200.03" r="0.35" style="fill: rgb(255, 255, 255); transform-origin: 162.4px 200.03px;" id="elbvobfiznooa" class="animable"></circle><path d="M169.73,200a.36.36,0,1,1-.35-.35A.36.36,0,0,1,169.73,200Z" style="fill: rgb(255, 255, 255); transform-origin: 169.37px 200.01px;" id="el77961yst0nr" class="animable"></path><circle cx="176.35" cy="200.03" r="0.35" style="fill: rgb(255, 255, 255); transform-origin: 176.35px 200.03px;" id="elrqskahj21vn" class="animable"></circle><path d="M183.68,200a.36.36,0,1,1-.71,0,.36.36,0,0,1,.71,0Z" style="fill: rgb(255, 255, 255); transform-origin: 183.325px 200.06px;" id="eleqozgd0er7u" class="animable"></path><path d="M159.27,195.48a.35.35,0,0,1-.35.35.34.34,0,0,1-.35-.35.35.35,0,0,1,.35-.35A.35.35,0,0,1,159.27,195.48Z" style="fill: rgb(255, 255, 255); transform-origin: 158.92px 195.48px;" id="elk39i8r64s4" class="animable"></path><path d="M166.24,195.48a.34.34,0,0,1-.35.35.35.35,0,0,1-.35-.35.35.35,0,0,1,.35-.35A.35.35,0,0,1,166.24,195.48Z" style="fill: rgb(255, 255, 255); transform-origin: 165.89px 195.48px;" id="elszo7lhvdsan" class="animable"></path><path d="M173.22,195.48a.36.36,0,0,1-.71,0,.36.36,0,0,1,.71,0Z" style="fill: rgb(255, 255, 255); transform-origin: 172.865px 195.48px;" id="elnpl33baxvch" class="animable"></path><path d="M180.19,195.48a.36.36,0,0,1-.71,0,.36.36,0,0,1,.71,0Z" style="fill: rgb(255, 255, 255); transform-origin: 179.835px 195.48px;" id="elbkc6m4q7ufq" class="animable"></path><path d="M166.24,205a.32.32,0,0,1-.16.29l-.48-.1a.31.31,0,0,1-.06-.19.35.35,0,0,1,.35-.35A.35.35,0,0,1,166.24,205Z" style="fill: rgb(255, 255, 255); transform-origin: 165.89px 204.97px;" id="elg5wfhjro4zj" class="animable"></path><path d="M173.22,205a.36.36,0,0,1-.71,0,.36.36,0,0,1,.71,0Z" style="fill: rgb(255, 255, 255); transform-origin: 172.865px 205px;" id="eleimklf17cf" class="animable"></path><path d="M180.17,204.88l-.69.1a.36.36,0,0,1,.36-.35A.34.34,0,0,1,180.17,204.88Z" style="fill: rgb(255, 255, 255); transform-origin: 179.825px 204.805px;" id="elyp71k8iy6y" class="animable"></path><path d="M157.57,198.68q-3.39-5.56-6.62-11.22c-2.16-3.77-4.09-7.65-6.16-11.47-1.17-2.15-2.21-4.38-3.21-6.61,0,0-.11,0-.09,0,1.11,2.83,2.24,5.66,3.5,8.43l-.57-.8c-.7-1-1.41-1.93-2.13-2.89a.11.11,0,0,0-.19.11,26.6,26.6,0,0,0,2,3.07c.5.66,1,1.28,1.58,1.9.33.7.65,1.39,1,2.08a125.16,125.16,0,0,0,6.46,11.32c1.37,2.1,2.81,4.13,4.33,6.13C157.49,198.84,157.62,198.77,157.57,198.68Z" style="fill: rgb(38, 50, 56); transform-origin: 149.534px 184.083px;" id="elmoh9wr7apo" class="animable"></path><path d="M172.33,179.9c-.63.09-1,.22-1.16.09-.33-.27-4.93-4.91-6.29-6.28-1.16-1.17-2.3-2.36-3.44-3.55-.66-1.11-1.31-2.23-2.07-3.28a.08.08,0,0,0-.13.08,20.35,20.35,0,0,0,1.35,2.3l-3.72-3.93s-.07,0,0,0c2.42,3.09,13.7,15.3,13.92,15.25s1.26-.53,1.62-.62C172.46,180,172.42,179.88,172.33,179.9Z" style="fill: rgb(38, 50, 56); transform-origin: 164.635px 172.955px;" id="elm669o6kzcge" class="animable"></path><path d="M177,179.73a.08.08,0,0,0-.16,0,221,221,0,0,0,3,23.62c0,.08.16.06.16,0A220.34,220.34,0,0,0,177,179.73Z" style="fill: rgb(38, 50, 56); transform-origin: 178.42px 191.526px;" id="eliakflgljgl" class="animable"></path><path d="M148.31,147.57c.23,1,4.84,7.05,9.17,6.78,1.41-.08,1.28-7.8,1.28-7.8l.12-.58,1.68-8-9.46-5.89-1.37-.78s-.31,2.22-.68,5c0,.13,0,.26-.05.4s-.05.3-.07.45c-.06.41-.12.83-.17,1.25s-.08.64-.1,1-.07.67-.11,1A53.91,53.91,0,0,0,148.31,147.57Z" style="fill: rgb(235, 148, 129); transform-origin: 154.42px 142.829px;" id="elvdj3m85he8m" class="animable"></path><path d="M149.05,136.28a16.4,16.4,0,0,0,9.83,9.69l1.68-8-9.46-5.89-1.37-.78S149.42,133.51,149.05,136.28Z" style="fill: rgb(38, 50, 56); transform-origin: 154.805px 138.635px;" id="elbbq5e8xyi58" class="animable"></path><path d="M172.25,124.24c2.49,14.14-5.7,17.24-8.75,17.77-2.77.49-12.26,1.79-16.21-12s1.85-19.44,8.13-20.89S169.75,110.09,172.25,124.24Z" style="fill: rgb(235, 148, 129); transform-origin: 159.357px 125.518px;" id="elnhh7ho804v" class="animable"></path><path d="M169,120.7a8.12,8.12,0,0,1-1,0,1.67,1.67,0,0,1-1-.22.53.53,0,0,1-.11-.62,1.28,1.28,0,0,1,1.18-.51,1.85,1.85,0,0,1,1.27.45A.54.54,0,0,1,169,120.7Z" style="fill: rgb(38, 50, 56); transform-origin: 168.158px 120.028px;" id="el0wdf3xj42bp" class="animable"></path><path d="M159.85,123.66c.34,0,.65-.06,1-.09a1.65,1.65,0,0,0,1-.29.51.51,0,0,0,.07-.62,1.27,1.27,0,0,0-1.21-.44,1.86,1.86,0,0,0-1.24.52A.55.55,0,0,0,159.85,123.66Z" style="fill: rgb(38, 50, 56); transform-origin: 160.66px 122.929px;" id="elb8zmyzbzgj5" class="animable"></path><path d="M162.48,126.46s-.07.06-.06.09c.23,1,.32,2.09-.48,2.58,0,0,0,.06,0,.05C163,128.82,162.85,127.32,162.48,126.46Z" style="fill: rgb(38, 50, 56); transform-origin: 162.348px 127.821px;" id="elopxqtrc6ox" class="animable"></path><path d="M161.42,125.63c-1.56.19-1.06,3.31.39,3.13S162.74,125.46,161.42,125.63Z" style="fill: rgb(38, 50, 56); transform-origin: 161.572px 127.195px;" id="el69qnbwo923f" class="animable"></path><path d="M160.84,125.89c-.25.22-.46.57-.79.66s-.71-.18-1-.46c0,0,0,0,0,0,.09.6.42,1.17,1.07,1.16s.94-.61,1-1.24C161.06,126,160.94,125.8,160.84,125.89Z" style="fill: rgb(38, 50, 56); transform-origin: 160.085px 126.558px;" id="els96kqvcwrw" class="animable"></path><path d="M167.73,125.26s.09,0,.09.08c.12,1,.42,2.06,1.34,2.25,0,0,0,0,0,0C168.07,127.66,167.69,126.2,167.73,125.26Z" style="fill: rgb(38, 50, 56); transform-origin: 168.444px 126.426px;" id="eletrrf7nfo0l" class="animable"></path><path d="M168.44,124.12c1.54-.35,2.14,2.75.71,3.08S167.15,124.42,168.44,124.12Z" style="fill: rgb(38, 50, 56); transform-origin: 168.841px 125.658px;" id="eldfuzgyyho2n" class="animable"></path><path d="M169.13,124.2c.28.12.58.37.87.33s.53-.43.69-.79c0,0,0,0,.05,0,.13.59,0,1.24-.49,1.46s-1-.23-1.24-.79C169,124.34,169,124.15,169.13,124.2Z" style="fill: rgb(38, 50, 56); transform-origin: 169.897px 124.498px;" id="elebgn4pl25a" class="animable"></path><path d="M163.75,134.08c.26.2.53.49.88.48a2.51,2.51,0,0,0,1-.37s.07,0,0,.05a1.33,1.33,0,0,1-1.17.67,1.07,1.07,0,0,1-.87-.78S163.71,134.05,163.75,134.08Z" style="fill: rgb(38, 50, 56); transform-origin: 164.626px 134.492px;" id="elscejjkxhk0g" class="animable"></path><path d="M167.18,129.9a20.69,20.69,0,0,1,.56,2.08c0,.07-.14.12-.37.18h0a3.26,3.26,0,0,1-3.34-.66.07.07,0,0,1,.08-.11,4.94,4.94,0,0,0,3.1.33c0-.19-.85-2.38-.74-2.4a5.92,5.92,0,0,1,1.6.08c-.85-3-2.17-5.75-3-8.7,0-.11.13-.17.17-.08a49.09,49.09,0,0,1,3.59,9.24C169,130.23,167.47,130,167.18,129.9Z" style="fill: rgb(38, 50, 56); transform-origin: 166.428px 126.469px;" id="elac00cbpl92t" class="animable"></path><path d="M150,112.64c-1.56,2.31-13.4,7.9-19.58-2.2S137,87.62,147,94.72C153.7,99.5,153.32,107.73,150,112.64Z" style="fill: rgb(38, 50, 56); transform-origin: 140.56px 104.467px;" id="elsq5xq7o5olq" class="animable"></path><path d="M147.86,131.27c1.57-.44,4.75-5.73,3.2-13.44,0,0,.91,7,.62,8.15s1.77-3,.61-9.21a25.72,25.72,0,0,0,7.08,1.9c3.1.18,4.89-.24,5-.49s-4.44-.68-5.9-1.76c0,0,8.58,1.91,12.22,1.4.43-.06-1-8.7-7.29-11.11s-14.27,3.43-16.13,6.23c0,0-2.69,1-4.8,5.76S146.17,131.75,147.86,131.27Z" style="fill: rgb(38, 50, 56); transform-origin: 156.387px 118.715px;" id="elclvc7has886" class="animable"></path><path d="M160.71,132.15a4.7,4.7,0,1,1,4-6.25h0a4.71,4.71,0,0,1-2.87,6A4.64,4.64,0,0,1,160.71,132.15Zm-.78-8.74a3.92,3.92,0,0,0-1,.22,4,4,0,1,0,1-.22Z" style="fill: rgb(69, 90, 100); transform-origin: 160.278px 127.47px;" id="elk7bg5tvz88s" class="animable"></path><path d="M171.26,129.88c-1.79.16-3.58-1.53-4.08-3.93a5.55,5.55,0,0,1,.3-3.42,2.93,2.93,0,0,1,4.9-1,5.57,5.57,0,0,1,1.65,3c.53,2.54-.57,4.92-2.46,5.32ZM170,121.22l-.23,0a2.51,2.51,0,0,0-1.72,1.54,5,5,0,0,0-.26,3c.46,2.2,2.09,3.73,3.65,3.4s2.43-2.37,2-4.57A5,5,0,0,0,172,122,2.59,2.59,0,0,0,170,121.22Z" style="fill: rgb(69, 90, 100); transform-origin: 170.6px 125.243px;" id="elfmcejfbyhw" class="animable"></path><path d="M164.68,126.47l-.49-.39c.58-.73,2-1.86,3.4-.89l-.36.51C166,124.84,164.74,126.4,164.68,126.47Z" style="fill: rgb(69, 90, 100); transform-origin: 165.89px 125.642px;" id="elfos99v5vlp6" class="animable"></path><path d="M144.43,132l-.61-.17c.08-.28.81-2.77,2.14-3.29s9.64-1.42,10-1.46l.07.62c-2.41.27-8.89,1.06-9.85,1.43S144.62,131.26,144.43,132Z" style="fill: rgb(69, 90, 100); transform-origin: 149.925px 129.54px;" id="elfqhaiznl5d" class="animable"></path><path d="M150.18,130.44s-3.31-4.36-5.3-3.16.63,7.6,3.05,8.4a2.43,2.43,0,0,0,3.2-1.44Z" style="fill: rgb(235, 148, 129); transform-origin: 147.653px 131.464px;" id="elt0ty0rl0kuq" class="animable"></path><path d="M145.68,129.1s-.05.05,0,.06a6.13,6.13,0,0,1,3.32,3.72,1.34,1.34,0,0,0-2-.29s0,.1.05.09a1.48,1.48,0,0,1,1.66.45,6.87,6.87,0,0,1,.84,1.3c.09.15.36.06.29-.11v0C149.75,132.14,148,129.22,145.68,129.1Z" style="fill: rgb(38, 50, 56); transform-origin: 147.755px 131.803px;" id="elc01xxq5smor" class="animable"></path><path d="M158.78,146.69l-2.41,6.41-8.09-7.86-2.18,2.63s8,12.61,8.06,12l2.5-5.54,3.87,3.72-.53-9.56Z" style="fill: rgb(64, 123, 255); transform-origin: 153.315px 152.566px;" id="el8es8ppxjm5b" class="animable"></path><path d="M160.53,153.34c-.14-1.58-.23-3.17-.45-4.74,0,0-.09-.08-.1,0-.28,1.53.28,7.56.31,9l0,0c-.16-.16-3.58-3.28-3.61-3.22-.55.88-2.38,4.91-2.51,5.28-1.27-2-6.12-9.28-7.61-11.16,0-.06-.13,0-.09.05,1.13,2.12,7.55,11.92,7.65,11.89a61.85,61.85,0,0,0,2.6-5.86,41.88,41.88,0,0,0,4.05,4A47.42,47.42,0,0,0,160.53,153.34Z" style="fill: rgb(38, 50, 56); transform-origin: 153.617px 154.457px;" id="ello6stcnlmp" class="animable"></path></g><defs>     <filter id="active" height="200%">         <feMorphology in="SourceAlpha" result="DILATED" operator="dilate" radius="2"></feMorphology>                <feFlood flood-color="#32DFEC" flood-opacity="1" result="PINK"></feFlood>        <feComposite in="PINK" in2="DILATED" operator="in" result="OUTLINE"></feComposite>        <feMerge>            <feMergeNode in="OUTLINE"></feMergeNode>            <feMergeNode in="SourceGraphic"></feMergeNode>        </feMerge>    </filter>    <filter id="hover" height="200%">        <feMorphology in="SourceAlpha" result="DILATED" operator="dilate" radius="2"></feMorphology>                <feFlood flood-color="#ff0000" flood-opacity="0.5" result="PINK"></feFlood>        <feComposite in="PINK" in2="DILATED" operator="in" result="OUTLINE"></feComposite>        <feMerge>            <feMergeNode in="OUTLINE"></feMergeNode>            <feMergeNode in="SourceGraphic"></feMergeNode>        </feMerge>            <feColorMatrix type="matrix" values="0   0   0   0   0                0   1   0   0   0                0   0   0   0   0                0   0   0   1   0 "></feColorMatrix>    </filter></defs></svg>