<svg width="360" height="216" viewBox="0 0 360 216" fill="none" xmlns="http://www.w3.org/2000/svg">
<path d="M391.589 -66.0446H-31.4109V215.955H391.589V-66.0446Z" fill="#F4FBFF"/>
<path d="M350.197 185.928C352.572 181.416 358.336 168.128 361.573 140.808C365.718 105.801 346.836 82.7724 342.228 70.308C337.62 57.8436 352.38 31.6233 331.173 5.8259C309.967 -19.9715 274.525 -19.4864 254.718 -9.35134C234.91 0.783745 209.598 11.37 189.294 -7.96953C168.99 -27.3091 154.878 -36.5418 122.262 -40.5405C88.1063 -44.7254 33.7875 -22.9889 37.634 23.0674C41.4353 68.4863 9.40014 62.4853 0.47766 105.801C-10.0917 157.119 16.6081 181.551 19.5127 185.928H350.197Z" fill="#D6F5FF"/>
<path d="M288.608 99.4048H30.5445V187.75H288.608V99.4048Z" fill="#65BFCE"/>
<path d="M293.182 187.75H287.915V99.4048H31.2326V187.75H25.9648V94.1371H293.182V187.75Z" fill="#91D3E2"/>
<path d="M290.548 139.088H28.5987V144.356H290.548V139.088Z" fill="#91D3E2"/>
<path d="M114.806 96.7709H109.538V185.928H114.806V96.7709Z" fill="#91D3E2"/>
<path d="M209.615 96.7709H204.347V185.928H209.615V96.7709Z" fill="#91D3E2"/>
<path d="M46.156 187.468C46.156 187.468 19.8229 130.194 29.6985 111.762C39.5741 93.3305 81.0507 97.9384 90.2664 115.056C99.4822 132.173 113.306 187.468 113.306 187.468H46.156Z" fill="#0055AA"/>
<path d="M90.2665 115.056C88.7817 112.428 86.7554 110.146 84.3219 108.361C76.6459 105.265 61.1472 100.837 51.5084 110.476C40.8319 121.158 62.9294 168.568 74.1079 187.468H113.306C113.306 187.468 99.4822 132.173 90.2665 115.056Z" fill="#1A78C6"/>
<path d="M325.285 187.468C325.285 187.468 351.618 130.194 341.743 111.762C331.867 93.3305 290.419 97.9384 281.18 115.056C271.942 132.173 258.135 187.468 258.135 187.468H325.285Z" fill="#1A78C6"/>
<path d="M290.768 105.975C286.527 108.378 283.132 111.435 281.18 115.061C271.959 132.179 258.135 187.473 258.135 187.473H301.563C310.638 167.919 328.263 126.764 321.991 114.531C317.502 105.789 303.109 104.915 290.768 105.975Z" fill="#0055AA"/>
<path d="M192.277 153.882C192.277 153.882 197.438 155.01 200.128 155.01C202.818 155.01 210.534 150.926 212.04 152.432C213.546 153.938 206.191 155.912 207.759 157.48C209.327 159.048 222.344 159.612 221.114 160.864C219.885 162.116 212.587 161.535 212.587 161.535C212.587 161.535 221.673 162.432 221.673 163.667C221.673 164.902 212.694 164.118 212.694 164.118C212.694 164.118 220.624 165.246 219.541 166.335C218.458 167.423 212.04 166.335 212.04 166.335C212.04 166.335 217.714 167.175 216.287 168.591C215.835 169.036 206.975 168.703 203.044 166.899C199.113 165.094 197.404 163.086 196.688 163.086C195.971 163.086 188.459 161.738 188.459 161.738L192.277 153.882Z" fill="#B56167"/>
<path d="M142.301 89.9465C142.301 89.9465 148.505 131.496 157.225 137.323C165.944 143.149 193.698 151 193.698 151C193.698 151 195.357 160.943 188.724 166.335C188.724 166.335 157.225 160.131 146.035 152.235C134.845 144.339 121.58 96.6976 123.238 91.7231C124.896 86.7486 142.301 89.9465 142.301 89.9465Z" fill="#F0EDF2"/>
<path d="M149.667 82.011C149.536 82.0142 149.406 82.0029 149.278 81.9772L149.532 80.7702C149.852 80.7882 150.172 80.7307 150.466 80.6023C150.759 80.474 151.019 80.2784 151.224 80.0314C153.028 78.2491 155.516 72.0846 151.889 50.8669L153.102 50.6582C156.66 71.4811 154.478 78.6383 152.019 80.9789C151.398 81.6146 150.555 81.9846 149.667 82.011Z" fill="#39657D"/>
<path d="M164.918 55.1421C165.363 50.2341 165.363 45.2958 164.918 40.3878C163.998 30.7998 153.79 28.5438 153.79 28.5438C153.79 28.5438 136.125 20.5068 128.703 35.622C121.281 50.7372 128.032 61.0359 127.496 64.4706C126.96 67.9054 123.266 77.4426 123.266 77.4426L139.137 85.756C139.137 85.756 140.547 79.4787 140.981 76.6869C141.416 73.8951 144.597 73.3029 144.597 73.3029C150.406 75.5589 157.044 77.0535 161.55 68.8811C162.597 66.8332 163.356 64.6506 163.806 62.3951C164.675 62.3443 166.469 62.1526 167.106 61.5153C167.743 60.8779 165.803 56.8341 164.918 55.1421Z" fill="#F4B3BD"/>
<path d="M162.092 64.8767L157.061 63.4498C157.061 63.4498 157.247 68.1987 158.815 68.1987C160.383 68.1987 162.092 64.8767 162.092 64.8767Z" fill="white"/>
<path d="M161.189 53.8731C162.08 53.8731 162.803 53.1509 162.803 52.26C162.803 51.3692 162.08 50.647 161.189 50.647C160.299 50.647 159.576 51.3692 159.576 52.26C159.576 53.1509 160.299 53.8731 161.189 53.8731Z" fill="#39657D"/>
<path d="M157.061 48.7069C159.346 48.3245 161.679 48.3245 163.964 48.7069C163.964 48.7069 164.635 45.9884 161.928 45.9884C159.221 45.9884 157.061 48.7069 157.061 48.7069Z" fill="#39657D"/>
<path d="M166.091 25.1372C167.716 24.8441 169.392 25.1553 170.804 26.0124C172.216 26.8694 173.265 28.213 173.755 29.7902C174.525 32.1237 174.772 34.5982 174.477 37.0377C173.468 43.4785 166.581 45.0013 161.026 43.7718C156.514 42.7679 152.713 39.491 152.713 39.491C152.713 39.491 152.837 45.9376 149.481 48.3853C146.125 50.8331 147.4 53.8336 145.894 53.6023C144.388 53.3711 146.723 47.3194 142.865 46.2365C139.007 45.1536 138.065 52.2375 140.609 54.4653L139.746 57.2345C139.746 57.2345 135.945 62.7673 131.517 62.9535C127.09 63.1396 124.851 61.0133 122.262 52.2375C119.673 43.4616 118.743 33.3942 123.537 26.66C128.331 19.9259 134.253 22.6105 134.411 21.5389C134.569 20.4673 140.744 14.7709 149.543 19.2829C154.974 22.0634 159.92 26.2032 166.091 25.1372Z" fill="#0055AA"/>
<g style="mix-blend-mode:multiply" opacity="0.5">
<path d="M138.737 64.4875C136.977 66.6082 140.993 76.6812 140.993 76.6812C141.433 73.8894 144.608 73.2972 144.608 73.2972C144.608 73.2972 137.27 67.6685 138.737 64.4875Z" fill="#F7BFC5"/>
</g>
<g style="mix-blend-mode:multiply" opacity="0.5">
<path d="M174.381 37.5227C161.973 42.328 147.586 34.3418 145.268 31.7304C144.788 35.6784 144.704 39.367 139.836 44.4938C131.94 52.4913 124.654 48.2556 120.503 44.2287C120.889 46.9421 121.477 49.6229 122.262 52.2488C124.851 61.0133 127.09 63.1396 131.517 62.9648C135.945 62.7899 139.746 57.2458 139.746 57.2458L140.609 54.4766C138.065 52.2488 139.052 45.21 142.865 46.2478C146.678 47.2856 144.394 53.3768 145.894 53.6136C147.394 53.8505 146.131 50.8444 149.481 48.3966C152.831 45.9489 152.713 39.5024 152.713 39.5024C152.713 39.5024 156.508 42.7792 161.026 43.7831C166.423 44.9732 173.112 43.5519 174.381 37.5227Z" fill="#0055AA"/>
</g>
<path d="M178.194 145.664C176.65 145.66 175.11 145.499 173.597 145.185C152.38 140.831 149.114 87.7582 148.815 81.8531C142.279 79.5351 141.545 53.7715 141.483 50.7767H142.713C142.882 58.8419 144.439 79.9524 149.515 80.7984L150.005 80.8774V81.3793C150.005 81.9433 152.763 139.686 173.823 143.983C189.192 147.13 197.996 133.572 205.768 121.598C208.684 117.086 211.442 112.851 214.29 110.008C224.515 99.777 230.905 99.6247 231.176 99.6247V100.854C231.12 100.854 224.972 101.069 215.153 110.877C212.401 113.635 209.677 117.831 206.794 122.269C199.981 132.805 191.634 145.664 178.194 145.664Z" fill="#39657D"/>
<path d="M143.587 50.7598C143.588 51.0545 143.502 51.3429 143.339 51.5885C143.176 51.8341 142.944 52.0258 142.672 52.1394C142.4 52.253 142.1 52.2833 141.811 52.2264C141.522 52.1696 141.256 52.0283 141.047 51.8203C140.838 51.6123 140.696 51.347 140.638 51.058C140.58 50.769 140.609 50.4693 140.722 50.1969C140.834 49.9245 141.025 49.6916 141.27 49.5278C141.515 49.3639 141.803 49.2765 142.098 49.2765C142.492 49.2765 142.87 49.4326 143.149 49.7106C143.428 49.9886 143.586 50.3659 143.587 50.7598Z" fill="white"/>
<path d="M120.395 76.0044C120.395 76.0044 135.516 79.7607 146.294 95.0958C155.408 108.068 155.583 187.366 155.583 187.366L88.9411 187.71C88.9411 187.71 95.3143 169.437 98.0384 152.094C101.005 133.217 101.484 104.092 106.335 92.5127C113.723 74.8595 120.395 76.0044 120.395 76.0044Z" fill="white"/>
<path d="M130.604 175.387C123.937 175.996 116.961 169.933 116.662 174.783C116.498 177.395 115.105 182.736 114.654 187.581L155.583 187.366C155.583 187.366 154.664 109.873 145.55 96.9006C141.839 91.616 131.388 86.8727 127.547 84.6111C118.207 86.6302 115.979 86.399 112.11 93.5336C112.11 93.5336 108.777 99.2976 120.57 117.487C132.363 135.676 146.339 146.589 149.374 152.043C152.408 157.497 151.494 166.6 145.426 168.111C139.357 169.623 120.869 149.319 122.082 155.077C123.294 160.836 137.276 174.783 130.604 175.387Z" fill="#F0EDF2"/>
<path d="M120.395 76.0044C125.758 79.727 130.148 84.6849 133.192 90.4597C138.161 99.997 136.091 100.826 136.091 100.826L146.04 103.719L137.75 108.694L154.833 158.258C154.833 158.258 153.502 114.08 149.757 102.061C146.012 90.0424 124.89 71.3909 124.89 71.3909L120.395 76.0044Z" fill="#F0EDF2"/>
<path d="M186.4 168.703C186.4 168.703 185.097 168.512 187.59 172.691C190.083 176.87 193.061 178.731 193.98 178.303C194.9 177.874 196.665 175.184 195.063 171.89C193.462 168.596 186.4 168.703 186.4 168.703Z" fill="#DD4C38"/>
<path d="M195.537 176.363C195.537 176.363 191.758 178.207 191.138 178.743C190.517 179.278 189.237 181.771 185.498 183.869C182.244 185.697 179.604 187.738 178.73 186.689C177.856 185.64 181.313 183.627 182.311 182.77C182.966 182.109 183.409 181.269 183.586 180.356C181.918 180.296 180.252 180.496 178.645 180.948C175.882 181.709 172.785 186.295 171.646 185.838C169.909 185.138 174.754 179.842 174.754 179.842C174.754 179.842 169.807 184.823 169.035 183.926C168.262 183.029 173.276 177.761 173.276 177.761C173.276 177.761 175.989 175.144 178.775 174.061C181.561 172.979 184.832 172.798 188.414 171.777C191.995 170.756 196.603 165.979 196.603 165.979C196.603 165.979 203.647 170.407 202.243 172.403C201.521 173.379 195.537 176.363 195.537 176.363Z" fill="#DF9296"/>
<path d="M241.565 87.5326C241.565 87.5326 230.889 90.973 226.478 107.487C222.068 124.001 219.507 140.43 215.706 145.512C211.904 150.593 186.378 168.703 186.378 168.703C188.837 169.577 191.039 171.05 192.785 172.99C195.464 176.103 193.958 178.303 193.958 178.303C193.958 178.303 224.109 166.459 230.838 153.447C237.566 140.436 242.434 103.195 242.975 95.9813C243.517 88.7677 241.565 87.5326 241.565 87.5326Z" fill="#CD4438"/>
<g style="mix-blend-mode:multiply">
<path d="M230.849 153.447C235.874 143.735 239.873 120.521 241.779 106.376C238.729 106.426 235.689 106.726 232.688 107.273C232.688 107.273 232.31 137.001 228.063 146.093C224.482 153.763 200.483 168.799 193.055 173.323C195.357 176.255 193.969 178.303 193.969 178.303C193.969 178.303 224.132 166.453 230.849 153.447Z" fill="#DD4C38"/>
</g>
<path d="M250.854 83.4492C250.854 83.4492 254.199 81.8305 255.253 80.7758C256.308 79.7212 255.817 66.6758 255.817 66.6758H272.422C272.422 66.6758 270.944 79.411 272.422 80.8886C272.817 81.3127 273.296 81.6511 273.827 81.883C274.359 82.1148 274.932 82.2352 275.512 82.2366C275.512 82.2366 278.755 91.7569 267.616 95.8234C256.477 99.8898 248.756 92.9018 248.756 88.4406C248.756 83.9794 250.854 83.4492 250.854 83.4492Z" fill="#F7BFC5"/>
<g style="mix-blend-mode:multiply" opacity="0.5">
<path d="M272.393 67.0594C272.422 66.8169 272.433 66.6815 272.433 66.6815H255.829C255.829 66.6815 256.133 75.0174 255.716 78.9034C260.876 78.1476 269.94 75.6322 272.393 67.0594Z" fill="#F7BFC5"/>
</g>
<path d="M250.854 83.4492C250.854 83.4492 246.455 93.2177 259.833 94.2216C273.211 95.2255 275.524 82.2253 275.524 82.2253C275.524 82.2253 288.439 83.4154 293.453 94.4246C298.467 105.434 291.919 187.755 291.919 187.755H220.336C220.336 187.755 230.849 160.796 230.849 144.463C230.849 128.129 231.977 101.723 235.75 91.9149C237.126 88.3729 250.854 83.4492 250.854 83.4492Z" fill="#DD4C38"/>
<g style="mix-blend-mode:multiply">
<path d="M280.571 108.389V138.845C280.571 150.278 266.421 152.838 267.543 156.6C268.665 160.362 276.087 162.708 274.508 167.592C272.929 172.477 255.716 172.618 255.716 182.335C255.764 184.24 256.271 186.105 257.193 187.772H291.919C291.919 187.772 296.431 130.532 295.06 105.129C290.283 103.68 285.292 104.419 280.571 108.389Z" fill="#DD4C38"/>
</g>
<path d="M251.779 83.015C251.779 83.015 249.839 81.8869 248.226 84.4701C246.613 87.0532 245.479 95.2932 256.951 96.5848C268.423 97.8763 273.753 92.0728 274.881 89.9634C276.009 87.854 277.464 84.1486 277.137 82.6935C276.809 81.2384 274.187 81.9208 274.187 81.9208C274.187 81.9208 274.965 93.494 260.589 93.6576C246.212 93.8212 251.779 83.015 251.779 83.015Z" fill="white"/>
<path d="M257.684 162.375C257.684 162.375 250.397 163.233 245.874 162.674C241.351 162.116 240.448 161.772 234.684 163.65C228.92 165.528 218.441 172.11 220.697 173.091C222.953 174.073 229.721 169.504 229.721 169.504C229.721 169.504 221.853 175.003 222.671 176.047C223.489 177.09 231.548 171.851 231.548 171.851C231.548 171.851 225.525 177.694 227.381 177.925C229.236 178.156 234.188 173.351 234.188 173.351C234.188 173.351 229.676 178.213 231.441 178.427C233.207 178.641 237.132 174.304 237.132 174.304C237.132 174.304 243.043 174.095 245 172.573C246.957 171.05 248.305 170.412 249.698 170.582C251.091 170.751 260.098 171.399 260.098 171.399L257.684 162.375Z" fill="#DF9296"/>
<path d="M285.123 85.4514C285.123 85.4514 295.326 89.1681 300.915 106.584C306.555 124.255 309.646 161.247 303.543 167.891C297.441 174.535 255.005 174.659 255.005 174.659C255.005 174.659 253.009 167.102 252.749 161.529C252.749 161.529 287.717 156.527 289.584 154.502C291.451 152.477 279.579 110.668 279.15 100.725C278.721 90.7812 285.123 85.4514 285.123 85.4514Z" fill="#DD4C38"/>
<g style="mix-blend-mode:multiply">
<path d="M290.904 89.4727C290.988 89.8619 291.073 90.2567 291.186 90.6741C291.186 90.6741 299.804 131.395 301.05 146.093C302.297 160.791 300.723 165.156 286.6 167.57C276.448 169.301 261.412 169.16 253.714 168.946C254.317 172.133 254.983 174.637 254.983 174.637C254.983 174.637 297.424 174.535 303.52 167.869C309.617 161.202 306.538 124.232 300.892 106.562C298.106 97.8651 294.158 92.5747 290.904 89.4727Z" fill="#DD4C38"/>
</g>
<path d="M252.744 161.811C252.663 161.818 252.583 161.792 252.521 161.74C252.459 161.688 252.42 161.613 252.414 161.532C252.407 161.451 252.433 161.371 252.485 161.309C252.537 161.248 252.612 161.209 252.693 161.202C252.992 161.152 282.523 156.2 289.099 154.434C290.888 153.975 292.762 153.965 294.555 154.404C296.349 154.843 298.006 155.717 299.381 156.95C298.572 155.355 297.284 154.053 295.698 153.227C294.795 152.742 294.406 152.353 294.429 151.97C294.441 151.849 294.491 151.735 294.571 151.643C294.65 151.551 294.756 151.486 294.874 151.456C296.002 151.033 299.556 151.738 300.96 153.148C301.017 153.206 301.049 153.284 301.049 153.365C301.049 153.447 301.017 153.525 300.96 153.583C300.901 153.64 300.822 153.672 300.74 153.672C300.658 153.672 300.579 153.64 300.52 153.583C299.178 152.24 295.664 151.721 295.066 152.043C295.328 152.319 295.642 152.54 295.991 152.692C299.77 154.739 300.419 157.925 300.441 158.061C300.455 158.128 300.447 158.198 300.416 158.259C300.386 158.321 300.336 158.37 300.274 158.4C300.212 158.429 300.141 158.437 300.075 158.421C300.008 158.406 299.948 158.368 299.905 158.315C299.86 158.264 295.641 153.334 289.257 155.038C282.658 156.792 253.093 161.755 252.794 161.806L252.744 161.811Z" fill="#DD4C38"/>
<path d="M282.077 117.255C282.011 117.256 281.947 117.234 281.894 117.194C281.841 117.155 281.802 117.099 281.784 117.035C276.302 98.5137 279.917 92.8511 280.092 92.6199C280.138 92.5521 280.209 92.5051 280.289 92.4893C280.369 92.4735 280.452 92.49 280.521 92.5353C280.587 92.582 280.633 92.6527 280.649 92.7326C280.665 92.8125 280.649 92.8953 280.605 92.9639C280.566 93.0147 277.012 98.6941 282.393 116.861C282.416 116.939 282.407 117.023 282.368 117.095C282.329 117.167 282.263 117.221 282.184 117.244L282.077 117.255Z" fill="#DD4C38"/>
<path d="M243.116 36.6034C243.116 36.6034 237.792 54.3525 243.911 68.8867C247.532 77.4821 254.396 76.1059 260.764 74.3519C267.769 72.423 276.025 66.1175 279.906 55.3113C283.786 44.505 284.108 32.5539 271.869 27.4384C259.63 22.3229 246.077 28.7074 243.116 36.6034Z" fill="#F7BFC5"/>
<path d="M247.205 55.441C247.215 55.7433 247.135 56.0417 246.975 56.2986C246.815 56.5554 246.583 56.759 246.307 56.8837C246.032 57.0083 245.725 57.0484 245.427 56.9988C245.129 56.9493 244.852 56.8123 244.631 56.6052C244.411 56.3982 244.257 56.1303 244.188 55.8357C244.12 55.541 244.141 55.2327 244.248 54.9498C244.355 54.6669 244.544 54.4222 244.79 54.2466C245.036 54.071 245.329 53.9724 245.632 53.9633C246.036 53.9511 246.429 54.0999 246.724 54.3769C247.019 54.6539 247.192 55.0365 247.205 55.441Z" fill="#482320"/>
<path d="M241.638 52.2544C243.789 51.8236 245.996 51.755 248.169 52.0513C248.169 52.0513 248.733 49.4569 246.162 49.5359C243.59 49.6148 241.638 52.2544 241.638 52.2544Z" fill="#482320"/>
<path d="M256.257 55.7794C256.266 56.0815 256.365 56.3741 256.54 56.6203C256.715 56.8665 256.96 57.0552 257.242 57.1625C257.525 57.2698 257.833 57.2909 258.128 57.2232C258.422 57.1555 258.69 57.0019 258.897 56.782C259.105 56.5621 259.242 56.2856 259.292 55.9876C259.343 55.6896 259.303 55.3833 259.179 55.1076C259.056 54.8319 258.853 54.599 258.597 54.4385C258.341 54.278 258.043 54.197 257.741 54.2058C257.336 54.2191 256.952 54.392 256.675 54.6868C256.397 54.9816 256.247 55.3744 256.257 55.7794Z" fill="#482320"/>
<path d="M261.593 52.2656C259.417 51.9713 257.208 52.0418 255.056 52.4743C255.056 52.4743 254.34 49.9194 256.906 49.8348C259.472 49.7502 261.593 52.2656 261.593 52.2656Z" fill="#482320"/>
<path d="M247.893 61.9834C249.57 62.4393 251.338 62.4393 253.014 61.9834C252.177 62.7689 251.066 63.196 249.918 63.1734C247.921 63.1509 247.893 61.9834 247.893 61.9834Z" fill="#B56167"/>
<path d="M248.418 65.5591L255.75 65.1925C255.75 65.1925 252.93 69.8342 250.465 68.6724C248 67.5106 248.418 65.5591 248.418 65.5591Z" fill="white"/>
<path d="M265.857 39.1978C265.857 39.1978 256.004 45.0352 244.78 39.5475C243.73 40.1547 242.861 41.0297 242.26 42.083C241.66 43.1364 241.35 44.3303 241.362 45.5428C241.362 48.876 235.011 40.6191 237.025 32.8979C239.038 25.1768 259.021 20.2192 266.082 21.24C273.143 22.2609 274.057 26.175 275.304 28.29C275.304 28.29 280.904 28.854 282.523 35.5262C284 41.623 284.288 53.5459 277.853 62.4402C277.659 62.7104 277.389 62.9173 277.078 63.0351C276.766 63.1528 276.427 63.1761 276.103 63.102C275.778 63.028 275.483 62.8599 275.253 62.6188C275.024 62.3777 274.871 62.0743 274.813 61.7465C274.694 60.94 274.638 58.0467 275.146 58.1482C277.791 58.6614 281.468 52.3052 279.184 49.7728C275.969 46.1914 273.324 50.6583 273.324 53.5234C273.324 56.5013 270.656 50.9459 270.442 47.9454C270.228 44.945 266.5 44.5896 265.857 39.1978Z" fill="#482320"/>
<path d="M240.172 91.2663H237.183V109.207H240.172C243.471 109.207 246.15 105.191 246.15 100.234C246.15 95.2763 243.471 91.2663 240.172 91.2663Z" fill="#E4DFE8"/>
<path d="M237.183 109.201C240.485 109.201 243.161 105.187 243.161 100.234C243.161 95.2812 240.485 91.2663 237.183 91.2663C233.881 91.2663 231.204 95.2812 231.204 100.234C231.204 105.187 233.881 109.201 237.183 109.201Z" fill="#B1A9B9"/>
<path d="M235.925 94.3288H231.977V106.145H235.925C238.102 106.145 239.873 103.499 239.873 100.234C239.873 96.9683 238.125 94.3288 235.925 94.3288Z" fill="#E4DFE8"/>
<path d="M232.011 106.139C234.185 106.139 235.948 103.495 235.948 100.234C235.948 96.9726 234.185 94.3288 232.011 94.3288C229.837 94.3288 228.074 96.9726 228.074 100.234C228.074 103.495 229.837 106.139 232.011 106.139Z" fill="#B1A9B9"/>
<path d="M205.667 109.647C205.667 109.647 211.87 108.722 214.612 106.421C217.353 104.12 221.103 97.6338 224.448 96.3761C227.792 95.1184 236.376 91.5595 236.585 93.2346C236.794 94.9097 229.473 98.2599 229.473 98.2599C229.473 98.2599 238.683 95.3271 238.26 97.4195C237.837 99.5119 229.682 101.61 229.682 101.61C229.682 101.61 239.1 101.819 237.217 103.302C235.333 104.785 229.885 104.351 229.885 104.351C229.885 104.351 236.794 106.043 235.119 106.861C233.444 107.679 229.479 107.07 229.479 107.07C229.479 107.07 223.822 113.539 217.313 113.307L208.729 117.91L205.667 109.647Z" fill="#B56167"/>
<path d="M113.131 89.1964C112.394 90.6528 112.01 92.2622 112.01 93.8945C112.01 95.5268 112.394 97.1362 113.131 98.5926C118.151 108.914 141.258 136.533 154.771 137.712C166.452 138.732 211.966 121.959 211.966 121.959C211.966 121.959 213.207 110.352 206.998 108.699L157.642 118.648C157.642 118.648 135.042 90.2341 130.333 85.5247C126.509 81.7234 116.763 82.3494 113.131 89.1964Z" fill="white"/>
<path d="M205.666 118.496C201.493 120.752 158.527 129.776 154.833 133.482C152.814 135.501 153.485 136.866 154.512 137.683H154.743C166.423 138.704 211.938 121.931 211.938 121.931C211.938 121.931 212.728 114.509 209.863 110.69C209.564 112.918 208.627 116.906 205.666 118.496Z" fill="#F0EDF2"/>
<path d="M63.2001 149.883H61.0231V144.756C61.0231 144.091 60.7594 143.454 60.29 142.983C59.8205 142.513 59.1836 142.248 58.5189 142.246H44.9829C44.3177 142.248 43.6802 142.513 43.2099 142.983C42.7395 143.453 42.4746 144.091 42.4731 144.756V149.883H40.2961V144.756C40.2976 143.514 40.792 142.323 41.6708 141.446C42.5496 140.568 43.7409 140.075 44.9829 140.075H58.5189C59.76 140.076 60.9498 140.57 61.8274 141.448C62.705 142.325 63.1986 143.515 63.2001 144.756V149.883Z" fill="#B1A9B9"/>
<path d="M68.4961 148.653H21.3288V183.057H68.4961V148.653Z" fill="white"/>
<path d="M68.4904 183.063H82.3535V148.659H68.4904V183.063Z" fill="#B1A9B9"/>
<path d="M44.9096 177.276C51.2172 177.276 56.3306 172.163 56.3306 165.855C56.3306 159.548 51.2172 154.434 44.9096 154.434C38.6019 154.434 33.4886 159.548 33.4886 165.855C33.4886 172.163 38.6019 177.276 44.9096 177.276Z" fill="#75DECB"/>
<path d="M48.7109 158.151H41.3733V173.565H48.7109V158.151Z" fill="white"/>
<path d="M52.7492 169.521V162.184H37.3351V169.521H52.7492Z" fill="white"/>
<path d="M93.2331 131.852C95.1702 131.852 97.0279 132.621 98.3977 133.991C99.7674 135.361 100.537 137.218 100.537 139.155V183.063H85.9011V139.15C85.9018 138.189 86.0922 137.237 86.4614 136.35C86.8305 135.463 87.3711 134.657 88.0523 133.979C88.7334 133.301 89.5417 132.764 90.4307 132.399C91.3197 132.034 92.2721 131.848 93.2331 131.852Z" fill="#B1A9B9"/>
<path d="M95.8839 131.852C97.821 131.852 99.6787 132.621 101.048 133.991C102.418 135.361 103.188 137.218 103.188 139.155V183.063H88.5801V139.15C88.5816 137.214 89.3518 135.357 90.7213 133.989C92.0909 132.62 93.9478 131.852 95.8839 131.852Z" fill="#E4DFE8"/>
<path d="M98.8675 136.093H93.2162V183.057H98.8675V136.093Z" fill="white"/>
<path d="M94.5758 137.04H94.2652V183.063H94.5758V137.04Z" fill="#39657D"/>
<path d="M97.5195 138.05H95.1676V138.36H97.5195V138.05Z" fill="#39657D"/>
<path d="M96.5833 138.89H95.1676V139.201H96.5833V138.89Z" fill="#39657D"/>
<path d="M96.5833 139.731H95.1676V140.041H96.5833V139.731Z" fill="#39657D"/>
<path d="M96.5833 140.571H95.1676V140.881H96.5833V140.571Z" fill="#39657D"/>
<path d="M96.5833 141.417H95.1676V141.727H96.5833V141.417Z" fill="#39657D"/>
<path d="M97.5195 142.28H95.1676V142.59H97.5195V142.28Z" fill="#39657D"/>
<path d="M96.5833 143.12H95.1676V143.431H96.5833V143.12Z" fill="#39657D"/>
<path d="M96.5833 143.966H95.1676V144.277H96.5833V143.966Z" fill="#39657D"/>
<path d="M96.5833 144.807H95.1676V145.117H96.5833V144.807Z" fill="#39657D"/>
<path d="M96.5833 145.647H95.1676V145.957H96.5833V145.647Z" fill="#39657D"/>
<path d="M97.5195 146.516H95.1676V146.826H97.5195V146.516Z" fill="#39657D"/>
<path d="M96.5833 147.356H95.1676V147.666H96.5833V147.356Z" fill="#39657D"/>
<path d="M96.5833 148.196H95.1676V148.507H96.5833V148.196Z" fill="#39657D"/>
<path d="M96.5833 149.037H95.1676V149.347H96.5833V149.037Z" fill="#39657D"/>
<path d="M96.5833 149.883H95.1676V150.193H96.5833V149.883Z" fill="#39657D"/>
<path d="M97.5195 150.746H95.1676V151.056H97.5195V150.746Z" fill="#39657D"/>
<path d="M96.5833 151.586H95.1676V151.896H96.5833V151.586Z" fill="#39657D"/>
<path d="M96.5833 152.432H95.1676V152.742H96.5833V152.432Z" fill="#39657D"/>
<path d="M96.5833 153.272H95.1676V153.583H96.5833V153.272Z" fill="#39657D"/>
<path d="M96.5833 154.113H95.1676V154.423H96.5833V154.113Z" fill="#39657D"/>
<path d="M97.5195 154.976H95.1676V155.286H97.5195V154.976Z" fill="#39657D"/>
<path d="M96.5833 155.822H95.1676V156.132H96.5833V155.822Z" fill="#39657D"/>
<path d="M96.5833 156.662H95.1676V156.972H96.5833V156.662Z" fill="#39657D"/>
<path d="M96.5833 157.502H95.1676V157.813H96.5833V157.502Z" fill="#39657D"/>
<path d="M96.5833 158.348H95.1676V158.659H96.5833V158.348Z" fill="#39657D"/>
<path d="M97.5195 159.211H95.1676V159.522H97.5195V159.211Z" fill="#39657D"/>
<path d="M96.5833 160.052H95.1676V160.362H96.5833V160.052Z" fill="#39657D"/>
<path d="M96.5833 160.898H95.1676V161.208H96.5833V160.898Z" fill="#39657D"/>
<path d="M96.5833 161.738H95.1676V162.048H96.5833V161.738Z" fill="#39657D"/>
<path d="M96.5833 162.578H95.1676V162.889H96.5833V162.578Z" fill="#39657D"/>
<path d="M97.5195 163.441H95.1676V163.752H97.5195V163.441Z" fill="#39657D"/>
<path d="M96.5833 164.287H95.1676V164.598H96.5833V164.287Z" fill="#39657D"/>
<path d="M96.5833 165.128H95.1676V165.438H96.5833V165.128Z" fill="#39657D"/>
<path d="M96.5833 165.968H95.1676V166.278H96.5833V165.968Z" fill="#39657D"/>
<path d="M96.5833 166.814H95.1676V167.124H96.5833V166.814Z" fill="#39657D"/>
<path d="M97.5195 167.677H95.1676V167.987H97.5195V167.677Z" fill="#39657D"/>
<path d="M96.5833 168.517H95.1676V168.828H96.5833V168.517Z" fill="#39657D"/>
<path d="M96.5833 169.358H95.1676V169.668H96.5833V169.358Z" fill="#39657D"/>
<path d="M96.5833 170.204H95.1676V170.514H96.5833V170.204Z" fill="#39657D"/>
<path d="M96.5833 171.044H95.1676V171.354H96.5833V171.044Z" fill="#39657D"/>
<path d="M97.5195 171.907H95.1676V172.217H97.5195V171.907Z" fill="#39657D"/>
<path d="M96.5833 172.753H95.1676V173.063H96.5833V172.753Z" fill="#39657D"/>
<path d="M96.5833 173.593H95.1676V173.904H96.5833V173.593Z" fill="#39657D"/>
<path d="M96.5833 174.434H95.1676V174.744H96.5833V174.434Z" fill="#39657D"/>
<path d="M96.5833 175.28H95.1676V175.59H96.5833V175.28Z" fill="#39657D"/>
<path d="M97.5195 176.143H95.1676V176.453H97.5195V176.143Z" fill="#39657D"/>
<path d="M96.5833 176.983H95.1676V177.293H96.5833V176.983Z" fill="#39657D"/>
<path d="M96.5833 177.823H95.1676V178.134H96.5833V177.823Z" fill="#39657D"/>
<path d="M96.5833 178.669H95.1676V178.98H96.5833V178.669Z" fill="#39657D"/>
<path d="M96.5833 179.51H95.1676V179.82H96.5833V179.51Z" fill="#39657D"/>
<path d="M127.186 177.293H85.9124V183.063H127.186V177.293Z" fill="#0055AA"/>
<path d="M118.968 177.293H85.9124V183.063H118.968V177.293Z" fill="#1A78C6"/>
<path d="M356.886 183.063H8.40187C7.77757 183.041 7.15529 183.145 6.57212 183.369C5.98895 183.593 5.45684 183.932 5.0075 184.366C4.55817 184.8 4.20082 185.32 3.95675 185.895C3.71268 186.47 3.5869 187.088 3.5869 187.713C3.5869 188.338 3.71268 188.956 3.95675 189.531C4.20082 190.106 4.55817 190.626 5.0075 191.06C5.45684 191.494 5.98895 191.833 6.57212 192.057C7.15529 192.281 7.77757 192.385 8.40187 192.363H356.886C358.092 192.321 359.233 191.813 360.071 190.945C360.909 190.078 361.377 188.919 361.377 187.713C361.377 186.507 360.909 185.348 360.071 184.481C359.233 183.613 358.092 183.105 356.886 183.063Z" fill="#482320"/>
<path d="M99.7417 13.4512H51.1079V79.9637H99.7417V13.4512Z" fill="#FFB0C9"/>
<path d="M96.8653 17.3766H53.9787V76.0326H96.8653V17.3766Z" fill="white"/>
<path d="M82.5735 14.754C82.3303 14.7189 82.0976 14.6313 81.8917 14.4972C81.6858 14.3631 81.5116 14.1857 81.3811 13.9774C81.2507 13.7692 81.1672 13.535 81.1364 13.2912C81.1057 13.0474 81.1284 12.7998 81.203 12.5657C81.285 12.3112 81.3055 12.0409 81.2629 11.777C81.2202 11.5131 81.1157 11.263 80.9577 11.0473C80.7998 10.8315 80.593 10.6563 80.3542 10.536C80.1155 10.4156 79.8517 10.3535 79.5843 10.3548H71.2653C70.9979 10.3535 70.7341 10.4156 70.4954 10.536C70.2566 10.6563 70.0498 10.8315 69.8919 11.0473C69.7339 11.263 69.6294 11.5131 69.5867 11.777C69.5441 12.0409 69.5646 12.3112 69.6466 12.5657C69.7212 12.7998 69.7439 13.0474 69.7132 13.2912C69.6824 13.535 69.5989 13.7692 69.4685 13.9774C69.338 14.1857 69.1638 14.3631 68.9579 14.4972C68.752 14.6313 68.5193 14.7189 68.2761 14.754L65.0669 15.2391V18.5554H85.7827V15.2278L82.5735 14.754Z" fill="#DD4C38"/>
<path d="M68.9755 24.1785H58.8573V34.2966H68.9755V24.1785Z" fill="#75DECB"/>
<path d="M59.7202 27.3143H61.0513L63.9164 30.5799L68.451 24.9173L63.9164 31.8489L59.7202 27.3143Z" fill="white"/>
<path d="M91.9979 25.5264H70.7408V25.893H91.9979V25.5264Z" fill="#091143"/>
<path d="M70.7408 29.4237V29.0514H91.9979V29.4237" fill="#091143"/>
<path d="M91.9979 32.5764H70.7408V32.943H91.9979V32.5764Z" fill="#091143"/>
<path d="M68.9755 36.6598H58.8573V46.7779H68.9755V36.6598Z" fill="#75DECB"/>
<path d="M59.7202 39.7956H61.0513L63.9164 43.0612L68.451 37.3986L63.9164 44.3245L59.7202 39.7956Z" fill="white"/>
<path d="M91.9979 38.0078H70.7408V38.3743H91.9979V38.0078Z" fill="#091143"/>
<path d="M91.9979 41.5327V41.905H70.7408V41.5327" fill="#091143"/>
<path d="M91.9979 45.0578H70.7408V45.4244H91.9979V45.0578Z" fill="#091143"/>
<path d="M68.9755 49.1411H58.8573V59.2593H68.9755V49.1411Z" fill="#75DECB"/>
<path d="M59.7202 52.2769H61.0513L63.9164 55.5425L68.451 49.8799L63.9164 56.8059L59.7202 52.2769Z" fill="white"/>
<path d="M91.9979 50.489H70.7408V50.8557H91.9979V50.489Z" fill="#091143"/>
<path d="M91.9979 54.0141V54.3807H70.7408V54.0141" fill="#091143"/>
<path d="M91.9979 57.5391H70.7408V57.9057H91.9979V57.5391Z" fill="#091143"/>
<path d="M68.9755 61.6168H58.8573V71.7349H68.9755V61.6168Z" fill="#75DECB"/>
<path d="M59.7202 64.7583H61.0513L63.9164 68.0238L68.451 62.3556L63.9164 69.2872L59.7202 64.7583Z" fill="white"/>
<path d="M91.9979 62.9704H70.7408V63.337H91.9979V62.9704Z" fill="#091143"/>
<path d="M91.9979 66.4953V66.8619H70.7408V66.4953" fill="#091143"/>
<path d="M91.9979 70.0204H70.7408V70.387H91.9979V70.0204Z" fill="#091143"/>
<path d="M308.574 1.98507C307.964 0.740867 307.084 -0.35182 305.999 -1.21367C304.913 -2.07552 303.65 -2.6849 302.3 -2.99758C300.95 -3.31027 299.547 -3.3184 298.193 -3.0214C296.84 -2.72439 295.569 -2.1297 294.474 -1.28049L293.453 -0.473974L292.421 -1.28049C291.325 -2.12869 290.055 -2.72252 288.702 -3.01895C287.348 -3.31539 285.946 -3.307 284.596 -2.99439C283.246 -2.68178 281.983 -2.07279 280.898 -1.21154C279.812 -0.350301 278.932 0.741616 278.321 1.98507C277.545 3.57013 277.233 5.34279 277.423 7.09762C277.612 8.85246 278.295 10.5176 279.393 11.9002L293.453 24.0939L307.514 11.9002C308.61 10.5171 309.292 8.85129 309.48 7.09619C309.667 5.3411 309.353 3.56877 308.574 1.98507Z" fill="#DD4C38"/>
<path d="M298.411 17.8334C298.31 17.8341 298.212 17.8012 298.133 17.7399C298.053 17.6786 297.996 17.5924 297.971 17.495L294.401 3.27096L290.03 15.3011C289.995 15.3921 289.932 15.4694 289.849 15.5214C289.767 15.5735 289.67 15.5975 289.573 15.5899C289.476 15.5822 289.384 15.5434 289.311 15.4792C289.237 15.4149 289.187 15.3287 289.167 15.2334L287.356 5.82588L285.416 10.5973C285.381 10.6796 285.323 10.7501 285.249 10.8001C285.175 10.8502 285.088 10.8777 284.999 10.8793H270.893C270.773 10.8793 270.659 10.8318 270.574 10.7472C270.489 10.6626 270.442 10.5478 270.442 10.4281C270.442 10.3085 270.489 10.1937 270.574 10.1091C270.659 10.0245 270.773 9.97692 270.893 9.97692H284.7L287.102 4.08312C287.14 3.99456 287.205 3.9203 287.288 3.8712C287.37 3.82209 287.467 3.80069 287.562 3.81014C287.658 3.81959 287.748 3.85938 287.82 3.92371C287.891 3.98803 287.94 4.07353 287.96 4.16772L289.742 13.4794L294.057 1.59588C294.091 1.50685 294.152 1.43091 294.232 1.37896C294.312 1.32702 294.406 1.30173 294.502 1.30675C294.597 1.31176 294.688 1.3468 294.762 1.40685C294.836 1.46691 294.889 1.54888 294.914 1.64101L298.411 15.5605L301.045 5.13216C301.069 5.03574 301.126 4.95026 301.204 4.88905C301.283 4.82784 301.379 4.79434 301.479 4.79376C301.577 4.79332 301.673 4.82586 301.751 4.88618C301.828 4.9465 301.884 5.03112 301.907 5.12653L303.216 9.9882H316.013C316.133 9.9882 316.248 10.0357 316.332 10.1204C316.417 10.205 316.464 10.3197 316.464 10.4394C316.464 10.5591 316.417 10.6738 316.332 10.7585C316.248 10.8431 316.133 10.8906 316.013 10.8906H302.878C302.779 10.8894 302.683 10.8564 302.605 10.7964C302.527 10.7364 302.47 10.6528 302.443 10.5578L301.496 7.02157L298.845 17.5063C298.818 17.6007 298.761 17.6836 298.683 17.7426C298.604 17.8017 298.509 17.8335 298.411 17.8334Z" fill="white"/>
<path d="M325.968 63.303C327.832 55.3129 322.865 47.3247 314.875 45.461C306.885 43.5972 298.897 48.5636 297.033 56.5537C295.169 64.5438 300.136 72.532 308.126 74.3957C316.116 76.2595 324.104 71.2931 325.968 63.303Z" fill="#75DECB"/>
<path d="M316.459 49.9138H306.91V69.964H316.459V49.9138Z" fill="white"/>
<path d="M321.71 64.7131V55.1646H301.659V64.7131H321.71Z" fill="white"/>
<path d="M135.076 -6.14389C136.598 -15.6162 130.153 -24.5291 120.681 -26.0514C111.208 -27.5737 102.296 -21.1289 100.773 -11.6566C99.251 -2.18434 105.696 6.72855 115.168 8.25085C124.64 9.77316 133.553 3.32842 135.076 -6.14389Z" fill="#75DECB"/>
<path d="M114.062 0.552513C112.78 0.552513 111.55 0.043273 110.644 -0.86318C109.737 -1.76963 109.228 -2.99905 109.228 -4.28097V-11.19H118.895V-4.28097C118.896 -3.64602 118.771 -3.01716 118.529 -2.4304C118.286 -1.84364 117.93 -1.31051 117.481 -0.861528C117.032 -0.41255 116.499 -0.0565453 115.912 0.186097C115.325 0.42874 114.697 0.553255 114.062 0.552513Z" fill="white"/>
<path d="M111.676 3.63759C110.789 2.71186 110.306 1.47216 110.333 0.190589C110.359 -1.09098 110.893 -2.30971 111.817 -3.19809L116.808 -7.95261L123.497 -0.97029L118.506 3.81243C118.046 4.24982 117.505 4.59228 116.913 4.82024C116.32 5.04819 115.689 5.15717 115.055 5.14093C114.42 5.12469 113.795 4.98356 113.216 4.7256C112.636 4.46764 112.113 4.09793 111.676 3.63759Z" fill="white"/>
<path d="M205.069 50.9121C214.407 50.9121 221.977 43.3418 221.977 34.0034C221.977 24.6649 214.407 17.0946 205.069 17.0946C195.73 17.0946 188.16 24.6649 188.16 34.0034C188.16 43.3418 195.73 50.9121 205.069 50.9121Z" fill="#FFB0C9"/>
<path d="M224.393 14.4569L212.476 26.3733L212.696 26.5926L224.612 14.6762L224.393 14.4569Z" fill="#75DECB"/>
<path d="M195.433 51.5409L187.537 43.6445L185.527 45.6545L193.423 53.5509L195.433 51.5409Z" fill="white"/>
<path d="M215.02 26.3428L212.723 24.0456L190.326 46.4427L192.623 48.7398L215.02 26.3428Z" fill="#B1A9B9"/>
<path d="M214.453 29.4984L209.572 24.617L194.497 39.692L199.378 44.5734L214.453 29.4984Z" fill="white"/>
<path d="M200.063 43.8936L195.181 39.0121L194.499 39.6941L199.381 44.5755L200.063 43.8936Z" fill="#B1A9B9"/>
<path d="M200.884 46.0813L192.988 38.185L190.978 40.1949L198.874 48.0913L200.884 46.0813Z" fill="white"/>
<path d="M209.42 26.2673L209.173 26.5146L211.064 28.4049L211.311 28.1577L209.42 26.2673Z" fill="#39657D"/>
<path d="M208.737 26.945L208.489 27.1924L209.63 28.3337L209.878 28.0863L208.737 26.945Z" fill="#39657D"/>
<path d="M208.06 27.6201L207.812 27.8675L208.954 29.0088L209.201 28.7614L208.06 27.6201Z" fill="#39657D"/>
<path d="M207.389 28.2952L207.141 28.5426L208.283 29.6839L208.53 29.4365L207.389 28.2952Z" fill="#39657D"/>
<path d="M206.706 28.9704L206.459 29.2178L207.6 30.3591L207.848 30.1117L206.706 28.9704Z" fill="#39657D"/>
<path d="M206.02 29.667L205.772 29.9142L207.663 31.8046L207.91 31.5573L206.02 29.667Z" fill="#39657D"/>
<path d="M205.345 30.3542L205.098 30.6016L206.239 31.7429L206.487 31.4955L205.345 30.3542Z" fill="#39657D"/>
<path d="M204.663 31.0237L204.415 31.2711L205.557 32.4124L205.804 32.165L204.663 31.0237Z" fill="#39657D"/>
<path d="M203.982 31.7005L203.735 31.9479L204.876 33.0892L205.123 32.8418L203.982 31.7005Z" fill="#39657D"/>
<path d="M203.305 32.3756L203.058 32.623L204.199 33.7643L204.447 33.5169L203.305 32.3756Z" fill="#39657D"/>
<path d="M202.619 33.0666L202.371 33.3138L204.262 35.2042L204.509 34.9569L202.619 33.0666Z" fill="#39657D"/>
<path d="M201.939 33.7426L201.691 33.99L202.833 35.1313L203.08 34.8839L201.939 33.7426Z" fill="#39657D"/>
<path d="M201.262 34.4233L201.015 34.6708L202.156 35.8121L202.403 35.5646L201.262 34.4233Z" fill="#39657D"/>
<path d="M200.591 35.1098L200.343 35.3572L201.485 36.4985L201.732 36.2511L200.591 35.1098Z" fill="#39657D"/>
<path d="M199.908 35.7792L199.661 36.0267L200.802 37.168L201.05 36.9206L199.908 35.7792Z" fill="#39657D"/>
<path d="M199.208 36.4702L198.961 36.7175L200.851 38.6078L201.098 38.3605L199.208 36.4702Z" fill="#39657D"/>
<path d="M198.538 37.1478L198.29 37.3952L199.432 38.5365L199.679 38.2891L198.538 37.1478Z" fill="#39657D"/>
<path d="M197.861 37.8343L197.614 38.0817L198.755 39.223L199.002 38.9756L197.861 37.8343Z" fill="#39657D"/>
<path d="M197.184 38.4981L196.937 38.7455L198.078 39.8868L198.326 39.6394L197.184 38.4981Z" fill="#39657D"/>
<path d="M196.507 39.1789L196.26 39.4263L197.401 40.5676L197.649 40.3202L196.507 39.1789Z" fill="#39657D"/>
</svg>
